<svg xmlns="http://www.w3.org/2000/svg" xmlns:xlink="http://www.w3.org/1999/xlink" width="340" zoomAndPan="magnify" viewBox="0 0 255 254.999984" height="340" preserveAspectRatio="xMidYMid meet" version="1.0"><defs><clipPath id="16de0739a1"><path d="M 0 26.035156 L 255 26.035156 L 255 228 L 0 228 Z M 0 26.035156 " clip-rule="nonzero"/></clipPath></defs><g clip-path="url(#16de0739a1)"><path fill="#7952b3" d="M 52.96875 26.035156 C 38.476562 26.035156 27.75 38.667969 28.230469 52.367188 C 28.691406 65.527344 28.09375 82.574219 23.785156 96.472656 C 19.457031 110.414062 12.148438 119.246094 0.207031 120.378906 L 0.207031 133.183594 C 12.148438 134.316406 19.457031 143.148438 23.78125 157.089844 C 28.09375 170.988281 28.691406 188.035156 28.230469 201.195312 C 27.75 214.890625 38.476562 227.527344 52.972656 227.527344 L 201.492188 227.527344 C 215.988281 227.527344 226.710938 214.894531 226.230469 201.195312 C 225.769531 188.035156 226.367188 170.988281 230.675781 157.089844 C 235.003906 143.148438 242.292969 134.316406 254.234375 133.183594 L 254.234375 120.378906 C 242.292969 119.246094 235.003906 110.414062 230.675781 96.472656 C 226.367188 82.574219 225.769531 65.527344 226.230469 52.367188 C 226.710938 38.671875 215.988281 26.035156 201.492188 26.035156 Z M 172.429688 150.066406 C 172.429688 168.929688 158.300781 180.371094 134.847656 180.371094 L 94.929688 180.371094 C 93.789062 180.371094 92.691406 179.917969 91.886719 179.113281 C 91.078125 178.308594 90.625 177.21875 90.625 176.082031 L 90.625 77.480469 C 90.625 76.34375 91.078125 75.253906 91.886719 74.449219 C 92.691406 73.644531 93.789062 73.195312 94.929688 73.195312 L 134.621094 73.195312 C 154.175781 73.195312 167.007812 83.738281 167.007812 99.933594 C 167.007812 111.296875 158.375 121.472656 147.378906 123.253906 L 147.378906 123.84375 C 162.347656 125.480469 172.429688 135.804688 172.429688 150.066406 Z M 130.496094 86.785156 L 107.734375 86.785156 L 107.734375 118.796875 L 126.90625 118.796875 C 141.726562 118.796875 149.898438 112.855469 149.898438 102.234375 C 149.894531 92.28125 142.871094 86.785156 130.496094 86.785156 Z M 107.734375 131.496094 L 107.734375 166.773438 L 131.335938 166.773438 C 146.765625 166.773438 154.9375 160.609375 154.9375 149.023438 C 154.9375 137.4375 146.535156 131.496094 130.34375 131.496094 Z M 107.734375 131.496094 " fill-opacity="1" fill-rule="evenodd"/></g></svg>