<svg xmlns="http://www.w3.org/2000/svg" xmlns:xlink="http://www.w3.org/1999/xlink" width="340" zoomAndPan="magnify" viewBox="0 0 255 254.999984" height="340" preserveAspectRatio="xMidYMid meet" version="1.0"><defs><clipPath id="76f1e24383"><path d="M 24.957031 0 L 157 0 L 157 198 L 24.957031 198 Z M 24.957031 0 " clip-rule="nonzero"/></clipPath></defs><g clip-path="url(#76f1e24383)"><path fill="#2ba977" d="M 114.664062 0.210938 L 156.300781 0.210938 L 156.300781 191.59375 C 134.972656 195.640625 119.273438 197.234375 102.285156 197.234375 C 51.429688 197.179688 24.957031 174.394531 24.957031 130.636719 C 24.957031 88.472656 53.039062 61.113281 96.550781 61.113281 C 103.304688 61.113281 108.445312 61.644531 114.664062 63.242188 Z M 116.121094 97.730469 C 111.246094 96.132812 107.226562 95.601562 102.082031 95.601562 C 81.023438 95.601562 68.859375 108.484375 68.859375 131.0625 C 68.859375 153.042969 80.488281 165.179688 101.816406 165.179688 C 106.421875 165.179688 110.175781 164.917969 116.121094 164.121094 Z M 116.121094 97.730469 " fill-opacity="1" fill-rule="nonzero"/></g><path fill="#2ba977" d="M 224.390625 66.25 L 224.390625 162.074219 C 224.390625 195.074219 221.925781 210.941406 214.691406 224.625 C 207.9375 237.777344 199.042969 246.074219 180.664062 255.234375 L 142.027344 236.972656 C 160.40625 228.40625 169.304688 220.839844 174.984375 209.289062 C 180.929688 197.476562 182.804688 183.792969 182.804688 147.804688 L 182.804688 66.25 Z M 178.609375 0.210938 L 220.246094 0.210938 L 220.246094 42.640625 L 178.609375 42.640625 Z M 178.609375 0.210938 " fill-opacity="1" fill-rule="nonzero"/></svg>