<svg xmlns="http://www.w3.org/2000/svg" xmlns:xlink="http://www.w3.org/1999/xlink" width="340" zoomAndPan="magnify" viewBox="0 0 255 254.999984" height="340" preserveAspectRatio="xMidYMid meet" version="1.0"><defs><clipPath id="8d01854f8a"><path d="M 12.054688 15 L 242 15 L 242 248 L 12.054688 248 Z M 12.054688 15 " clip-rule="nonzero"/></clipPath></defs><path fill="#2dd0ed" d="M 93.160156 53.355469 C 60.597656 47.457031 34.847656 53.628906 24.585938 71.296875 C 16.925781 84.476562 19.113281 101.957031 29.890625 120.640625 C 30.109375 121.019531 30.398438 121.351562 30.746094 121.617188 C 31.09375 121.886719 31.492188 122.082031 31.914062 122.195312 C 32.335938 122.308594 32.78125 122.339844 33.214844 122.285156 C 33.648438 122.230469 34.070312 122.089844 34.449219 121.871094 C 35.21875 121.433594 35.78125 120.707031 36.011719 119.859375 C 36.246094 119.007812 36.128906 118.101562 35.6875 117.339844 C 25.976562 100.507812 24.085938 85.421875 30.371094 74.613281 C 38.894531 59.9375 61.859375 54.433594 91.964844 59.886719 C 92.507812 59.992188 93.070312 59.960938 93.601562 59.800781 C 94.128906 59.636719 94.609375 59.34375 94.996094 58.949219 C 95.386719 58.558594 95.667969 58.074219 95.824219 57.542969 C 95.976562 57.011719 95.992188 56.453125 95.875 55.914062 C 95.730469 55.265625 95.394531 54.675781 94.910156 54.222656 C 94.425781 53.765625 93.816406 53.464844 93.160156 53.355469 Z M 46.824219 143.351562 C 59.992188 157.734375 77.101562 171.222656 96.609375 182.421875 C 143.847656 209.53125 194.136719 216.773438 218.921875 199.976562 C 219.636719 199.472656 220.121094 198.714844 220.277344 197.855469 C 220.433594 197 220.242188 196.117188 219.75 195.398438 C 219.257812 194.679688 218.5 194.183594 217.640625 194.011719 C 216.785156 193.84375 215.894531 194.015625 215.160156 194.492188 C 192.976562 209.527344 145.207031 202.644531 99.949219 176.671875 C 81.019531 165.808594 64.457031 152.746094 51.765625 138.882812 C 51.324219 138.386719 50.742188 138.03125 50.097656 137.863281 C 49.453125 137.699219 48.769531 137.726562 48.140625 137.949219 C 47.617188 138.132812 47.148438 138.445312 46.777344 138.855469 C 46.40625 139.265625 46.144531 139.761719 46.015625 140.296875 C 45.882812 140.832031 45.890625 141.390625 46.03125 141.925781 C 46.171875 142.457031 46.445312 142.949219 46.824219 143.351562 Z M 46.824219 143.351562 " fill-opacity="1" fill-rule="nonzero"/><path fill="#2dd0ed" d="M 211.019531 139.3125 C 232.339844 114.277344 239.789062 89.09375 229.546875 71.460938 C 222.011719 58.492188 206.082031 51.640625 184.910156 51.367188 C 184.027344 51.359375 183.171875 51.695312 182.539062 52.308594 C 181.902344 52.925781 181.539062 53.761719 181.527344 54.644531 C 181.519531 55.300781 181.703125 55.945312 182.0625 56.496094 C 182.425781 57.046875 182.941406 57.480469 183.546875 57.738281 C 183.949219 57.910156 184.382812 58 184.824219 58.007812 C 203.863281 58.253906 217.589844 64.152344 223.765625 74.78125 C 232.269531 89.425781 225.628906 111.882812 205.921875 135.023438 C 205.628906 135.355469 205.402344 135.742188 205.261719 136.160156 C 205.121094 136.578125 205.066406 137.019531 205.097656 137.460938 C 205.128906 137.902344 205.25 138.328125 205.453125 138.722656 C 205.652344 139.117188 205.933594 139.464844 206.269531 139.75 C 206.609375 140.035156 207.003906 140.25 207.425781 140.382812 C 207.851562 140.515625 208.296875 140.5625 208.738281 140.519531 C 209.179688 140.480469 209.609375 140.351562 210 140.144531 C 210.390625 139.9375 210.738281 139.652344 211.019531 139.3125 Z M 156.21875 54.460938 C 136.9375 58.566406 116.417969 66.59375 96.710938 77.902344 C 47.945312 105.886719 16.132812 147.148438 20.550781 177.070312 C 20.605469 177.511719 20.75 177.933594 20.972656 178.316406 C 21.191406 178.699219 21.488281 179.035156 21.84375 179.304688 C 22.199219 179.570312 22.601562 179.765625 23.03125 179.875 C 23.464844 179.984375 23.910156 180.011719 24.351562 179.945312 C 24.792969 179.882812 25.214844 179.730469 25.59375 179.5 C 25.976562 179.273438 26.304688 178.96875 26.566406 178.613281 C 26.828125 178.253906 27.015625 177.847656 27.117188 177.417969 C 27.21875 176.988281 27.230469 176.542969 27.15625 176.105469 C 23.238281 149.542969 53.390625 110.425781 100.046875 83.652344 C 119.167969 72.679688 139.039062 64.910156 157.621094 60.949219 C 158.460938 60.738281 159.183594 60.214844 159.640625 59.484375 C 160.097656 58.753906 160.253906 57.875 160.070312 57.03125 C 159.890625 56.191406 159.386719 55.453125 158.667969 54.972656 C 157.949219 54.492188 157.070312 54.308594 156.21875 54.460938 Z M 156.21875 54.460938 " fill-opacity="1" fill-rule="nonzero"/><g clip-path="url(#8d01854f8a)"><path fill="#2dd0ed" d="M 77.214844 197.816406 C 88.367188 228.753906 106.605469 247.804688 127.113281 247.804688 C 142.070312 247.804688 155.910156 237.675781 166.703125 219.832031 C 166.945312 219.457031 167.109375 219.039062 167.183594 218.601562 C 167.261719 218.164062 167.25 217.714844 167.148438 217.28125 C 167.019531 216.738281 166.757812 216.238281 166.386719 215.820312 C 166.011719 215.40625 165.539062 215.089844 165.011719 214.902344 C 164.484375 214.71875 163.917969 214.667969 163.363281 214.753906 C 162.8125 214.84375 162.289062 215.070312 161.847656 215.410156 C 161.496094 215.683594 161.199219 216.023438 160.980469 216.410156 C 151.28125 232.445312 139.367188 241.171875 127.113281 241.171875 C 110.082031 241.171875 93.8125 224.175781 83.503906 195.574219 C 83.363281 195.15625 83.140625 194.769531 82.84375 194.4375 C 82.550781 194.105469 82.195312 193.835938 81.796875 193.640625 C 81.394531 193.449219 80.960938 193.339844 80.515625 193.3125 C 80.074219 193.289062 79.628906 193.355469 79.210938 193.503906 C 78.792969 193.652344 78.410156 193.882812 78.082031 194.183594 C 77.753906 194.480469 77.488281 194.84375 77.304688 195.242188 C 77.117188 195.644531 77.015625 196.078125 77 196.519531 C 76.984375 196.960938 77.054688 197.402344 77.214844 197.816406 Z M 179.054688 191.761719 C 184.824219 173.433594 187.921875 152.285156 187.921875 130.246094 C 187.921875 75.257812 168.5625 27.855469 140.980469 15.683594 C 140.175781 15.347656 139.269531 15.335938 138.457031 15.65625 C 137.644531 15.976562 136.988281 16.601562 136.632812 17.398438 C 136.277344 18.191406 136.253906 19.09375 136.558594 19.90625 C 136.863281 20.71875 137.480469 21.382812 138.269531 21.75 C 162.871094 32.609375 181.246094 77.59375 181.246094 130.246094 C 181.246094 151.621094 178.242188 172.105469 172.679688 189.777344 C 172.539062 190.199219 172.480469 190.640625 172.511719 191.082031 C 172.542969 191.523438 172.664062 191.957031 172.863281 192.351562 C 173.167969 192.945312 173.644531 193.433594 174.234375 193.757812 C 174.820312 194.078125 175.492188 194.214844 176.160156 194.152344 C 176.828125 194.089844 177.464844 193.824219 177.980469 193.398438 C 178.496094 192.972656 178.871094 192.402344 179.054688 191.761719 Z M 241.945312 188.511719 C 241.957031 186.414062 241.554688 184.339844 240.757812 182.402344 C 239.960938 180.460938 238.785156 178.699219 237.300781 177.210938 C 235.816406 175.726562 234.046875 174.546875 232.101562 173.742188 C 230.15625 172.9375 228.070312 172.523438 225.964844 172.523438 C 223.855469 172.523438 221.769531 172.9375 219.824219 173.742188 C 217.878906 174.546875 216.109375 175.726562 214.625 177.214844 C 213.140625 178.699219 211.964844 180.460938 211.167969 182.402344 C 210.371094 184.339844 209.96875 186.417969 209.980469 188.511719 C 210.007812 192.707031 211.703125 196.722656 214.699219 199.679688 C 217.691406 202.636719 221.742188 204.292969 225.964844 204.292969 C 230.183594 204.292969 234.234375 202.636719 237.230469 199.679688 C 240.222656 196.722656 241.917969 192.707031 241.945312 188.511719 Z M 235.265625 188.511719 C 235.265625 190.964844 234.285156 193.3125 232.539062 195.046875 C 230.796875 196.78125 228.429688 197.757812 225.964844 197.757812 C 224.121094 197.757812 222.324219 197.214844 220.792969 196.199219 C 219.265625 195.183594 218.074219 193.738281 217.367188 192.050781 C 216.664062 190.359375 216.480469 188.5 216.839844 186.707031 C 217.199219 184.914062 218.085938 183.265625 219.386719 181.972656 C 220.6875 180.679688 222.34375 179.800781 224.148438 179.441406 C 225.953125 179.085938 227.824219 179.269531 229.523438 179.96875 C 231.222656 180.667969 232.675781 181.855469 233.699219 183.375 C 234.71875 184.894531 235.265625 186.683594 235.265625 188.511719 Z M 28.035156 204.398438 C 30.136719 204.398438 32.214844 203.984375 34.152344 203.1875 C 36.09375 202.390625 37.855469 201.21875 39.339844 199.742188 C 40.824219 198.269531 42 196.519531 42.804688 194.589844 C 43.605469 192.664062 44.019531 190.597656 44.019531 188.511719 C 44.019531 186.425781 43.605469 184.359375 42.804688 182.429688 C 42 180.503906 40.824219 178.753906 39.339844 177.277344 C 37.855469 175.800781 36.09375 174.632812 34.152344 173.832031 C 32.214844 173.035156 30.136719 172.625 28.035156 172.625 C 25.9375 172.625 23.859375 173.035156 21.921875 173.835938 C 19.980469 174.632812 18.21875 175.800781 16.734375 177.277344 C 15.25 178.753906 14.074219 180.503906 13.269531 182.433594 C 12.46875 184.359375 12.054688 186.425781 12.054688 188.511719 C 12.054688 190.597656 12.46875 192.664062 13.269531 194.589844 C 14.074219 196.515625 15.25 198.269531 16.734375 199.742188 C 18.21875 201.21875 19.980469 202.390625 21.921875 203.1875 C 23.859375 203.984375 25.9375 204.398438 28.035156 204.398438 Z M 28.035156 197.757812 C 25.570312 197.757812 23.203125 196.78125 21.457031 195.046875 C 19.710938 193.3125 18.730469 190.960938 18.730469 188.507812 C 18.730469 186.054688 19.710938 183.703125 21.457031 181.96875 C 23.203125 180.234375 25.570312 179.261719 28.035156 179.261719 C 30.503906 179.261719 32.871094 180.234375 34.617188 181.96875 C 36.363281 183.703125 37.34375 186.054688 37.34375 188.507812 C 37.34375 190.960938 36.363281 193.3125 34.617188 195.046875 C 32.871094 196.78125 30.503906 197.757812 28.035156 197.757812 Z M 28.035156 197.757812 " fill-opacity="1" fill-rule="nonzero"/></g><path fill="#2dd0ed" d="M 127.117188 31.886719 C 130.277344 31.886719 133.367188 30.957031 135.996094 29.210938 C 138.625 27.464844 140.671875 24.984375 141.882812 22.082031 C 142.886719 19.667969 143.277344 17.042969 143.019531 14.445312 C 142.761719 11.84375 141.863281 9.347656 140.402344 7.175781 C 138.941406 5.003906 136.964844 3.226562 134.648438 1.992188 C 132.332031 0.761719 129.742188 0.117188 127.117188 0.117188 C 123.953125 0.117188 120.863281 1.046875 118.234375 2.792969 C 115.605469 4.539062 113.558594 7.019531 112.347656 9.921875 C 111.136719 12.824219 110.820312 16.019531 111.4375 19.101562 C 112.054688 22.183594 113.578125 25.011719 115.8125 27.234375 C 117.296875 28.710938 119.058594 29.878906 121 30.679688 C 122.9375 31.476562 125.015625 31.886719 127.117188 31.886719 Z M 127.117188 25.25 C 125.277344 25.246094 123.476562 24.707031 121.945312 23.691406 C 120.417969 22.671875 119.226562 21.230469 118.519531 19.539062 C 118.050781 18.417969 117.8125 17.214844 117.8125 16 C 117.8125 14.789062 118.050781 13.585938 118.519531 12.464844 C 118.988281 11.339844 119.671875 10.320312 120.535156 9.464844 C 121.402344 8.605469 122.425781 7.921875 123.554688 7.460938 C 124.828125 6.9375 126.199219 6.699219 127.570312 6.765625 C 128.945312 6.832031 130.289062 7.203125 131.5 7.847656 C 132.714844 8.492188 133.769531 9.394531 134.589844 10.496094 C 135.410156 11.59375 135.972656 12.859375 136.242188 14.199219 C 136.507812 15.539062 136.476562 16.925781 136.140625 18.25 C 135.808594 19.578125 135.179688 20.8125 134.308594 21.871094 C 133.433594 22.925781 132.335938 23.777344 131.09375 24.363281 C 129.851562 24.949219 128.492188 25.25 127.117188 25.25 Z M 129.558594 141.480469 C 126.558594 142.125 123.425781 141.558594 120.847656 139.90625 C 118.925781 138.675781 117.414062 136.90625 116.503906 134.816406 C 115.59375 132.730469 115.324219 130.425781 115.734375 128.1875 C 116.144531 125.949219 117.210938 123.882812 118.804688 122.25 C 120.394531 120.617188 122.4375 119.488281 124.671875 119.007812 C 127.652344 118.417969 130.742188 119.011719 133.28125 120.667969 C 135.820312 122.324219 137.605469 124.902344 138.246094 127.855469 C 138.886719 130.804688 138.335938 133.886719 136.710938 136.4375 C 135.082031 138.984375 132.515625 140.796875 129.558594 141.480469 Z M 129.558594 141.480469 " fill-opacity="1" fill-rule="nonzero"/></svg>