<svg xmlns="http://www.w3.org/2000/svg" xmlns:xlink="http://www.w3.org/1999/xlink" width="340" zoomAndPan="magnify" viewBox="0 0 255 254.999984" height="340" preserveAspectRatio="xMidYMid meet" version="1.0"><path fill="#f7df1e" d="M 255.050781 0 L -0.851562 0 L -0.851562 254.480469 L 255.050781 254.480469 Z M 255.050781 0 " fill-opacity="1" fill-rule="nonzero"/><path fill="#000000" d="M 171.046875 198.8125 C 176.203125 207.183594 182.910156 213.335938 194.769531 213.335938 C 204.734375 213.335938 211.097656 208.382812 211.097656 201.539062 C 211.097656 193.339844 204.558594 190.433594 193.59375 185.664062 L 187.582031 183.101562 C 170.226562 175.746094 158.699219 166.539062 158.699219 147.070312 C 158.699219 129.132812 172.441406 115.480469 193.917969 115.480469 C 209.207031 115.480469 220.199219 120.773438 228.117188 134.628906 L 209.394531 146.585938 C 205.269531 139.230469 200.824219 136.335938 193.917969 136.335938 C 186.875 136.335938 182.410156 140.78125 182.410156 146.585938 C 182.410156 153.757812 186.878906 156.664062 197.195312 161.105469 L 203.207031 163.667969 C 223.636719 172.378906 235.175781 181.261719 235.175781 201.234375 C 235.175781 222.761719 218.167969 234.558594 195.328125 234.558594 C 172.996094 234.558594 158.566406 223.972656 151.507812 210.101562 Z M 86.101562 200.886719 C 89.878906 207.550781 93.316406 213.183594 101.578125 213.183594 C 109.476562 213.183594 114.460938 210.109375 114.460938 198.160156 L 114.460938 116.847656 L 138.507812 116.847656 L 138.507812 198.480469 C 138.507812 223.242188 123.910156 234.511719 102.601562 234.511719 C 83.347656 234.511719 72.199219 224.605469 66.527344 212.671875 Z M 86.101562 200.886719 " fill-opacity="1" fill-rule="nonzero"/></svg>