<svg xmlns="http://www.w3.org/2000/svg" xmlns:xlink="http://www.w3.org/1999/xlink" width="340" zoomAndPan="magnify" viewBox="0 0 255 254.999984" height="340" preserveAspectRatio="xMidYMid meet" version="1.0"><defs><clipPath id="1de28ef992"><path d="M 0 1.164062 L 255 1.164062 L 255 253.914062 L 0 253.914062 Z M 0 1.164062 " clip-rule="nonzero"/></clipPath></defs><g clip-path="url(#1de28ef992)"><path fill="#00546b" d="M 234.875 196.644531 C 221.011719 196.296875 210.269531 197.699219 201.257812 201.550781 C 198.660156 202.601562 194.5 202.601562 194.152344 205.929688 C 195.539062 207.328125 195.710938 209.605469 196.925781 211.53125 C 199.007812 215.035156 202.644531 219.761719 205.9375 222.214844 C 209.574219 225.015625 213.214844 227.816406 217.023438 230.269531 C 223.785156 234.472656 231.410156 236.925781 237.992188 241.128906 C 241.808594 243.578125 245.617188 246.730469 249.429688 249.359375 C 251.335938 250.757812 252.546875 253.035156 254.972656 253.910156 L 254.972656 253.386719 C 253.761719 251.808594 253.414062 249.53125 252.203125 247.78125 C 250.472656 246.03125 248.734375 244.453125 247.003906 242.703125 C 241.976562 235.875 235.742188 229.917969 228.984375 225.015625 C 223.4375 221.164062 211.308594 215.910156 209.054688 209.429688 C 209.054688 209.429688 208.882812 209.257812 208.710938 209.082031 C 212.519531 208.730469 217.023438 207.328125 220.664062 206.277344 C 226.554688 204.703125 231.929688 205.054688 237.992188 203.476562 C 240.765625 202.777344 243.539062 201.898438 246.308594 201.023438 L 246.308594 199.449219 C 243.191406 196.296875 240.941406 192.09375 237.648438 189.117188 C 228.808594 181.410156 219.105469 173.878906 209.054688 167.578125 C 203.683594 164.074219 196.75 161.796875 191.035156 158.820312 C 188.957031 157.769531 185.488281 157.246094 184.277344 155.492188 C 181.15625 151.640625 179.421875 146.5625 177.171875 142.011719 C 172.148438 132.375 167.296875 121.695312 162.964844 111.539062 C 159.84375 104.707031 157.9375 97.878906 154.125 91.574219 C 136.277344 61.804688 116.871094 43.769531 87.070312 26.078125 C 80.65625 22.402344 73.03125 20.828125 64.886719 18.902344 C 60.558594 18.726562 56.222656 18.375 51.894531 18.199219 C 49.121094 16.972656 46.347656 13.648438 43.921875 12.070312 C 34.046875 5.765625 8.574219 -7.890625 1.296875 10.144531 C -3.382812 21.527344 8.226562 32.734375 12.210938 38.515625 C 15.160156 42.542969 18.96875 47.09375 21.050781 51.648438 C 22.261719 54.625 22.609375 57.777344 23.820312 60.929688 C 26.59375 68.632812 29.191406 77.214844 32.832031 84.394531 C 34.738281 88.074219 36.816406 91.925781 39.242188 95.253906 C 40.628906 97.179688 43.054688 98.054688 43.574219 101.207031 C 41.152344 104.707031 40.976562 109.964844 39.589844 114.339844 C 33.351562 134.128906 35.777344 158.644531 44.613281 173.179688 C 47.386719 177.558594 53.972656 187.191406 62.808594 183.511719 C 70.605469 180.359375 68.875 170.378906 71.125 161.625 C 71.648438 159.519531 71.300781 158.121094 72.339844 156.71875 L 72.339844 157.070312 C 74.765625 161.972656 77.191406 166.703125 79.441406 171.605469 C 84.816406 180.183594 94.171875 189.117188 101.96875 195.070312 C 106.128906 198.222656 109.421875 203.652344 114.621094 205.578125 L 114.621094 205.050781 L 114.273438 205.050781 C 113.230469 203.476562 111.671875 202.777344 110.289062 201.546875 C 107.167969 198.398438 103.703125 194.546875 101.277344 191.042969 C 94 181.234375 87.585938 170.378906 81.871094 159.171875 C 79.097656 153.742188 76.671875 147.789062 74.417969 142.359375 C 73.378906 140.257812 73.378906 137.105469 71.644531 136.054688 C 69.046875 139.90625 65.234375 143.234375 63.328125 147.964844 C 60.039062 155.492188 59.691406 164.773438 58.476562 174.40625 C 57.785156 174.582031 58.128906 174.40625 57.78125 174.757812 C 52.238281 173.355469 50.332031 167.578125 48.253906 162.671875 C 43.054688 150.242188 42.1875 130.277344 46.695312 115.917969 C 47.90625 112.238281 53.105469 100.683594 51.027344 97.179688 C 49.988281 93.851562 46.519531 91.925781 44.613281 89.300781 C 42.363281 85.972656 39.933594 81.769531 38.375 78.089844 C 34.21875 68.285156 32.136719 57.425781 27.632812 47.621094 C 25.554688 43.066406 21.917969 38.339844 18.96875 34.136719 C 15.679688 29.410156 12.039062 26.078125 9.4375 20.476562 C 8.574219 18.550781 7.359375 15.398438 8.746094 13.296875 C 9.09375 11.894531 9.785156 11.371094 11.171875 11.019531 C 13.425781 9.09375 19.835938 11.546875 22.085938 12.597656 C 28.5 15.222656 33.871094 17.675781 39.242188 21.351562 C 41.667969 23.101562 44.269531 26.429688 47.386719 27.308594 L 51.027344 27.308594 C 56.570312 28.53125 62.808594 27.65625 68.007812 29.230469 C 77.191406 32.207031 85.507812 36.585938 92.960938 41.316406 C 115.660156 55.851562 134.371094 76.515625 147.023438 101.207031 C 149.101562 105.230469 149.96875 108.914062 151.875 113.113281 C 155.515625 121.695312 160.019531 130.453125 163.65625 138.855469 C 167.296875 147.085938 170.761719 155.492188 175.960938 162.324219 C 178.558594 166 188.953125 167.925781 193.632812 169.855469 C 197.097656 171.429688 202.472656 172.832031 205.589844 174.757812 C 211.480469 178.433594 217.371094 182.636719 222.917969 186.664062 C 225.691406 188.765625 234.351562 193.144531 234.875 196.644531 Z M 234.875 196.644531 " fill-opacity="1" fill-rule="nonzero"/></g><path fill="#00546b" d="M 58.128906 44.464844 C 55.183594 44.464844 53.105469 44.820312 51.027344 45.34375 L 51.027344 45.695312 L 51.371094 45.695312 C 52.757812 48.496094 55.183594 50.421875 56.914062 52.875 C 58.304688 55.675781 59.515625 58.476562 60.902344 61.28125 C 61.074219 61.105469 61.25 60.929688 61.25 60.929688 C 63.675781 59.175781 64.886719 56.375 64.886719 52.171875 C 63.847656 50.949219 63.675781 49.722656 62.808594 48.496094 C 61.769531 46.742188 59.515625 45.867188 58.128906 44.464844 Z M 58.128906 44.464844 " fill-opacity="1" fill-rule="nonzero"/></svg>