<svg xmlns="http://www.w3.org/2000/svg" xmlns:xlink="http://www.w3.org/1999/xlink" width="340" zoomAndPan="magnify" viewBox="0 0 255 254.999984" height="340" preserveAspectRatio="xMidYMid meet" version="1.0"><defs><clipPath id="fe6efc88a8"><path d="M 3.351562 62.070312 L 251.648438 62.070312 L 251.648438 193 L 3.351562 193 Z M 3.351562 62.070312 " clip-rule="nonzero"/></clipPath><clipPath id="bcbb0e0a59"><path d="M 3.585938 127.640625 C 3.585938 163.710938 59.066406 192.957031 127.5 192.957031 C 195.933594 192.957031 251.414062 163.710938 251.414062 127.640625 C 251.414062 91.566406 195.933594 62.324219 127.5 62.324219 C 59.066406 62.324219 3.585938 91.566406 3.585938 127.640625 " clip-rule="nonzero"/></clipPath><clipPath id="a15051ba57"><path d="M 3.585938 127.640625 C 3.585938 163.710938 59.066406 192.957031 127.5 192.957031 C 195.933594 192.957031 251.414062 163.710938 251.414062 127.640625 C 251.414062 91.566406 195.933594 62.324219 127.5 62.324219 C 59.066406 62.324219 3.585938 91.566406 3.585938 127.640625 " clip-rule="nonzero"/></clipPath><radialGradient gradientTransform="matrix(0.99898, 0, 0, 1.00102, 77.984294, 85.285725)" gradientUnits="userSpaceOnUse" r="162.883435" cx="0" id="255a2fa3a0" cy="0" fx="0" fy="0"><stop stop-opacity="1" stop-color="rgb(68.238831%, 69.799805%, 83.529663%)" offset="0"/><stop stop-opacity="1" stop-color="rgb(68.238831%, 69.799805%, 83.529663%)" offset="0.25"/><stop stop-opacity="1" stop-color="rgb(68.203735%, 69.764709%, 83.503723%)" offset="0.296875"/><stop stop-opacity="1" stop-color="rgb(67.996216%, 69.555664%, 83.348083%)" offset="0.300781"/><stop stop-opacity="1" stop-color="rgb(67.648315%, 69.20929%, 83.088684%)" offset="0.304688"/><stop stop-opacity="1" stop-color="rgb(67.301941%, 68.861389%, 82.830811%)" offset="0.308594"/><stop stop-opacity="1" stop-color="rgb(66.954041%, 68.513489%, 82.571411%)" offset="0.3125"/><stop stop-opacity="1" stop-color="rgb(66.607666%, 68.167114%, 82.313538%)" offset="0.316406"/><stop stop-opacity="1" stop-color="rgb(66.259766%, 67.819214%, 82.054138%)" offset="0.320312"/><stop stop-opacity="1" stop-color="rgb(65.911865%, 67.472839%, 81.796265%)" offset="0.324219"/><stop stop-opacity="1" stop-color="rgb(65.565491%, 67.124939%, 81.536865%)" offset="0.328125"/><stop stop-opacity="1" stop-color="rgb(65.21759%, 66.778564%, 81.278992%)" offset="0.332031"/><stop stop-opacity="1" stop-color="rgb(64.871216%, 66.430664%, 81.019592%)" offset="0.335938"/><stop stop-opacity="1" stop-color="rgb(64.523315%, 66.08429%, 80.761719%)" offset="0.339844"/><stop stop-opacity="1" stop-color="rgb(64.176941%, 65.736389%, 80.502319%)" offset="0.34375"/><stop stop-opacity="1" stop-color="rgb(63.829041%, 65.388489%, 80.24292%)" offset="0.347656"/><stop stop-opacity="1" stop-color="rgb(63.482666%, 65.042114%, 79.985046%)" offset="0.351562"/><stop stop-opacity="1" stop-color="rgb(63.134766%, 64.694214%, 79.725647%)" offset="0.355469"/><stop stop-opacity="1" stop-color="rgb(62.786865%, 64.347839%, 79.467773%)" offset="0.359375"/><stop stop-opacity="1" stop-color="rgb(62.440491%, 63.999939%, 79.208374%)" offset="0.363281"/><stop stop-opacity="1" stop-color="rgb(62.09259%, 63.653564%, 78.9505%)" offset="0.367188"/><stop stop-opacity="1" stop-color="rgb(61.746216%, 63.305664%, 78.691101%)" offset="0.371094"/><stop stop-opacity="1" stop-color="rgb(61.398315%, 62.95929%, 78.433228%)" offset="0.375"/><stop stop-opacity="1" stop-color="rgb(61.051941%, 62.611389%, 78.173828%)" offset="0.378906"/><stop stop-opacity="1" stop-color="rgb(60.704041%, 62.263489%, 77.915955%)" offset="0.382812"/><stop stop-opacity="1" stop-color="rgb(60.357666%, 61.917114%, 77.656555%)" offset="0.386719"/><stop stop-opacity="1" stop-color="rgb(60.009766%, 61.569214%, 77.398682%)" offset="0.390625"/><stop stop-opacity="1" stop-color="rgb(59.661865%, 61.222839%, 77.139282%)" offset="0.394531"/><stop stop-opacity="1" stop-color="rgb(59.315491%, 60.874939%, 76.881409%)" offset="0.398438"/><stop stop-opacity="1" stop-color="rgb(58.96759%, 60.528564%, 76.622009%)" offset="0.402344"/><stop stop-opacity="1" stop-color="rgb(58.621216%, 60.180664%, 76.364136%)" offset="0.40625"/><stop stop-opacity="1" stop-color="rgb(58.273315%, 59.83429%, 76.104736%)" offset="0.410156"/><stop stop-opacity="1" stop-color="rgb(57.926941%, 59.486389%, 75.845337%)" offset="0.414062"/><stop stop-opacity="1" stop-color="rgb(57.579041%, 59.138489%, 75.587463%)" offset="0.417969"/><stop stop-opacity="1" stop-color="rgb(57.232666%, 58.792114%, 75.328064%)" offset="0.421875"/><stop stop-opacity="1" stop-color="rgb(56.884766%, 58.444214%, 75.07019%)" offset="0.425781"/><stop stop-opacity="1" stop-color="rgb(56.536865%, 58.097839%, 74.810791%)" offset="0.429688"/><stop stop-opacity="1" stop-color="rgb(56.190491%, 57.749939%, 74.552917%)" offset="0.433594"/><stop stop-opacity="1" stop-color="rgb(55.84259%, 57.403564%, 74.293518%)" offset="0.4375"/><stop stop-opacity="1" stop-color="rgb(55.496216%, 57.055664%, 74.035645%)" offset="0.441406"/><stop stop-opacity="1" stop-color="rgb(55.148315%, 56.70929%, 73.776245%)" offset="0.445312"/><stop stop-opacity="1" stop-color="rgb(54.801941%, 56.361389%, 73.518372%)" offset="0.449219"/><stop stop-opacity="1" stop-color="rgb(54.454041%, 56.013489%, 73.258972%)" offset="0.453125"/><stop stop-opacity="1" stop-color="rgb(54.107666%, 55.667114%, 73.001099%)" offset="0.457031"/><stop stop-opacity="1" stop-color="rgb(53.759766%, 55.319214%, 72.741699%)" offset="0.460938"/><stop stop-opacity="1" stop-color="rgb(53.411865%, 54.972839%, 72.483826%)" offset="0.464844"/><stop stop-opacity="1" stop-color="rgb(53.065491%, 54.624939%, 72.224426%)" offset="0.46875"/><stop stop-opacity="1" stop-color="rgb(52.71759%, 54.278564%, 71.966553%)" offset="0.472656"/><stop stop-opacity="1" stop-color="rgb(52.371216%, 53.930664%, 71.707153%)" offset="0.476562"/><stop stop-opacity="1" stop-color="rgb(52.023315%, 53.58429%, 71.447754%)" offset="0.480469"/><stop stop-opacity="1" stop-color="rgb(51.676941%, 53.236389%, 71.18988%)" offset="0.484375"/><stop stop-opacity="1" stop-color="rgb(51.329041%, 52.888489%, 70.930481%)" offset="0.488281"/><stop stop-opacity="1" stop-color="rgb(50.982666%, 52.542114%, 70.672607%)" offset="0.492188"/><stop stop-opacity="1" stop-color="rgb(50.634766%, 52.194214%, 70.413208%)" offset="0.496094"/><stop stop-opacity="1" stop-color="rgb(50.286865%, 51.847839%, 70.155334%)" offset="0.5"/><stop stop-opacity="1" stop-color="rgb(49.940491%, 51.499939%, 69.895935%)" offset="0.503906"/><stop stop-opacity="1" stop-color="rgb(49.59259%, 51.153564%, 69.638062%)" offset="0.507812"/><stop stop-opacity="1" stop-color="rgb(49.246216%, 50.805664%, 69.378662%)" offset="0.511719"/><stop stop-opacity="1" stop-color="rgb(48.898315%, 50.45929%, 69.120789%)" offset="0.515625"/><stop stop-opacity="1" stop-color="rgb(48.551941%, 50.111389%, 68.861389%)" offset="0.519531"/><stop stop-opacity="1" stop-color="rgb(48.204041%, 49.763489%, 68.603516%)" offset="0.523438"/><stop stop-opacity="1" stop-color="rgb(47.857666%, 49.417114%, 68.344116%)" offset="0.527344"/><stop stop-opacity="1" stop-color="rgb(47.509766%, 49.069214%, 68.086243%)" offset="0.53125"/><stop stop-opacity="1" stop-color="rgb(47.161865%, 48.722839%, 67.826843%)" offset="0.535156"/><stop stop-opacity="1" stop-color="rgb(46.815491%, 48.374939%, 67.56897%)" offset="0.539062"/><stop stop-opacity="1" stop-color="rgb(46.46759%, 48.028564%, 67.30957%)" offset="0.542969"/><stop stop-opacity="1" stop-color="rgb(46.121216%, 47.680664%, 67.050171%)" offset="0.546875"/><stop stop-opacity="1" stop-color="rgb(45.773315%, 47.33429%, 66.792297%)" offset="0.550781"/><stop stop-opacity="1" stop-color="rgb(45.426941%, 46.986389%, 66.532898%)" offset="0.554688"/><stop stop-opacity="1" stop-color="rgb(45.079041%, 46.638489%, 66.275024%)" offset="0.558594"/><stop stop-opacity="1" stop-color="rgb(44.732666%, 46.292114%, 66.015625%)" offset="0.5625"/><stop stop-opacity="1" stop-color="rgb(44.384766%, 45.944214%, 65.757751%)" offset="0.566406"/><stop stop-opacity="1" stop-color="rgb(44.036865%, 45.597839%, 65.498352%)" offset="0.570312"/><stop stop-opacity="1" stop-color="rgb(43.690491%, 45.249939%, 65.240479%)" offset="0.574219"/><stop stop-opacity="1" stop-color="rgb(43.34259%, 44.903564%, 64.981079%)" offset="0.578125"/><stop stop-opacity="1" stop-color="rgb(42.996216%, 44.555664%, 64.723206%)" offset="0.582031"/><stop stop-opacity="1" stop-color="rgb(42.648315%, 44.20929%, 64.463806%)" offset="0.585938"/><stop stop-opacity="1" stop-color="rgb(42.301941%, 43.861389%, 64.205933%)" offset="0.589844"/><stop stop-opacity="1" stop-color="rgb(41.954041%, 43.513489%, 63.946533%)" offset="0.59375"/><stop stop-opacity="1" stop-color="rgb(41.607666%, 43.167114%, 63.68866%)" offset="0.597656"/><stop stop-opacity="1" stop-color="rgb(41.259766%, 42.819214%, 63.42926%)" offset="0.601562"/><stop stop-opacity="1" stop-color="rgb(40.911865%, 42.472839%, 63.171387%)" offset="0.605469"/><stop stop-opacity="1" stop-color="rgb(40.565491%, 42.124939%, 62.911987%)" offset="0.609375"/><stop stop-opacity="1" stop-color="rgb(40.21759%, 41.778564%, 62.654114%)" offset="0.613281"/><stop stop-opacity="1" stop-color="rgb(39.871216%, 41.430664%, 62.394714%)" offset="0.617188"/><stop stop-opacity="1" stop-color="rgb(39.523315%, 41.08429%, 62.135315%)" offset="0.621094"/><stop stop-opacity="1" stop-color="rgb(39.176941%, 40.736389%, 61.877441%)" offset="0.625"/><stop stop-opacity="1" stop-color="rgb(38.829041%, 40.388489%, 61.618042%)" offset="0.628906"/><stop stop-opacity="1" stop-color="rgb(38.482666%, 40.042114%, 61.360168%)" offset="0.632812"/><stop stop-opacity="1" stop-color="rgb(38.134766%, 39.694214%, 61.100769%)" offset="0.636719"/><stop stop-opacity="1" stop-color="rgb(37.786865%, 39.347839%, 60.842896%)" offset="0.640625"/><stop stop-opacity="1" stop-color="rgb(37.440491%, 38.999939%, 60.583496%)" offset="0.644531"/><stop stop-opacity="1" stop-color="rgb(37.09259%, 38.653564%, 60.325623%)" offset="0.648438"/><stop stop-opacity="1" stop-color="rgb(36.746216%, 38.305664%, 60.066223%)" offset="0.652344"/><stop stop-opacity="1" stop-color="rgb(36.398315%, 37.95929%, 59.80835%)" offset="0.65625"/><stop stop-opacity="1" stop-color="rgb(36.051941%, 37.611389%, 59.54895%)" offset="0.660156"/><stop stop-opacity="1" stop-color="rgb(35.704041%, 37.263489%, 59.291077%)" offset="0.664062"/><stop stop-opacity="1" stop-color="rgb(35.357666%, 36.917114%, 59.031677%)" offset="0.667969"/><stop stop-opacity="1" stop-color="rgb(35.009766%, 36.569214%, 58.773804%)" offset="0.671875"/><stop stop-opacity="1" stop-color="rgb(34.661865%, 36.222839%, 58.514404%)" offset="0.675781"/><stop stop-opacity="1" stop-color="rgb(34.315491%, 35.874939%, 58.256531%)" offset="0.679688"/><stop stop-opacity="1" stop-color="rgb(33.96759%, 35.528564%, 57.997131%)" offset="0.683594"/><stop stop-opacity="1" stop-color="rgb(33.621216%, 35.180664%, 57.737732%)" offset="0.6875"/><stop stop-opacity="1" stop-color="rgb(33.273315%, 34.83429%, 57.479858%)" offset="0.691406"/><stop stop-opacity="1" stop-color="rgb(32.926941%, 34.486389%, 57.220459%)" offset="0.695312"/><stop stop-opacity="1" stop-color="rgb(32.579041%, 34.138489%, 56.962585%)" offset="0.699219"/><stop stop-opacity="1" stop-color="rgb(32.232666%, 33.792114%, 56.703186%)" offset="0.703125"/><stop stop-opacity="1" stop-color="rgb(31.884766%, 33.444214%, 56.445312%)" offset="0.707031"/><stop stop-opacity="1" stop-color="rgb(31.536865%, 33.097839%, 56.185913%)" offset="0.710938"/><stop stop-opacity="1" stop-color="rgb(31.190491%, 32.749939%, 55.92804%)" offset="0.714844"/><stop stop-opacity="1" stop-color="rgb(30.84259%, 32.403564%, 55.66864%)" offset="0.71875"/><stop stop-opacity="1" stop-color="rgb(30.496216%, 32.055664%, 55.410767%)" offset="0.722656"/><stop stop-opacity="1" stop-color="rgb(30.148315%, 31.70929%, 55.151367%)" offset="0.726562"/><stop stop-opacity="1" stop-color="rgb(29.801941%, 31.361389%, 54.893494%)" offset="0.730469"/><stop stop-opacity="1" stop-color="rgb(29.454041%, 31.013489%, 54.634094%)" offset="0.734375"/><stop stop-opacity="1" stop-color="rgb(29.107666%, 30.667114%, 54.376221%)" offset="0.738281"/><stop stop-opacity="1" stop-color="rgb(28.759766%, 30.319214%, 54.116821%)" offset="0.742188"/><stop stop-opacity="1" stop-color="rgb(28.411865%, 29.972839%, 53.858948%)" offset="0.746094"/><stop stop-opacity="1" stop-color="rgb(28.239441%, 29.798889%, 53.729248%)" offset="1"/></radialGradient></defs><g clip-path="url(#fe6efc88a8)"><g clip-path="url(#bcbb0e0a59)"><g clip-path="url(#a15051ba57)"><path fill="url(#255a2fa3a0)" d="M 3.585938 62.324219 L 3.585938 192.957031 L 251.414062 192.957031 L 251.414062 62.324219 Z M 3.585938 62.324219 " fill-rule="nonzero"/></g></g></g><path fill="#777bb3" d="M 127.5 188.105469 C 193.261719 188.105469 246.574219 161.035156 246.574219 127.640625 C 246.574219 94.246094 193.261719 67.171875 127.5 67.171875 C 61.738281 67.171875 8.425781 94.246094 8.425781 127.640625 C 8.425781 161.035156 61.738281 188.105469 127.5 188.105469 " fill-opacity="1" fill-rule="nonzero"/><path fill="#000000" d="M 70.910156 135.136719 C 76.316406 135.136719 80.355469 134.136719 82.90625 132.167969 C 85.433594 130.21875 87.179688 126.839844 88.09375 122.128906 C 88.949219 117.722656 88.621094 114.648438 87.128906 112.988281 C 85.601562 111.296875 82.300781 110.4375 77.316406 110.4375 L 68.675781 110.4375 L 63.886719 135.136719 Z M 42.644531 165.5625 C 42.246094 165.5625 41.863281 165.382812 41.609375 165.074219 C 41.351562 164.761719 41.25 164.351562 41.324219 163.957031 L 54.023438 98.5 C 54.144531 97.867188 54.699219 97.410156 55.34375 97.410156 L 82.707031 97.410156 C 91.304688 97.410156 97.707031 99.75 101.730469 104.367188 C 105.773438 109.007812 107.023438 115.492188 105.441406 123.644531 C 104.796875 126.964844 103.691406 130.046875 102.152344 132.808594 C 100.609375 135.574219 98.574219 138.128906 96.097656 140.410156 C 93.132812 143.191406 89.773438 145.210938 86.128906 146.394531 C 82.542969 147.566406 77.9375 148.160156 72.441406 148.160156 L 61.359375 148.160156 L 58.195312 164.472656 C 58.074219 165.105469 57.519531 165.5625 56.875 165.5625 Z M 42.644531 165.5625 " fill-opacity="1" fill-rule="nonzero"/><path fill="#ffffff" d="M 69.785156 111.78125 L 77.316406 111.78125 C 83.332031 111.78125 85.421875 113.105469 86.132812 113.894531 C 87.308594 115.203125 87.53125 117.960938 86.773438 121.871094 C 85.925781 126.25 84.347656 129.355469 82.085938 131.097656 C 79.773438 132.882812 76.011719 133.789062 70.910156 133.789062 L 65.515625 133.789062 Z M 82.707031 96.0625 L 55.339844 96.0625 C 54.054688 96.0625 52.949219 96.976562 52.703125 98.246094 L 40.007812 163.703125 C 39.851562 164.492188 40.058594 165.308594 40.570312 165.929688 C 41.082031 166.550781 41.84375 166.910156 42.644531 166.910156 L 56.875 166.910156 C 58.164062 166.910156 59.269531 165.996094 59.515625 164.730469 L 62.46875 149.507812 L 72.441406 149.507812 C 78.078125 149.507812 82.824219 148.890625 86.546875 147.675781 C 90.375 146.429688 93.898438 144.316406 97.015625 141.394531 C 99.59375 139.019531 101.714844 136.351562 103.324219 133.464844 C 104.933594 130.578125 106.089844 127.359375 106.761719 123.898438 C 108.425781 115.320312 107.074219 108.449219 102.742188 103.480469 C 98.453125 98.558594 91.710938 96.0625 82.707031 96.0625 M 62.253906 136.484375 L 70.910156 136.484375 C 76.648438 136.484375 80.921875 135.402344 83.726562 133.234375 C 86.535156 131.066406 88.429688 127.453125 89.414062 122.386719 C 90.355469 117.519531 89.925781 114.089844 88.128906 112.089844 C 86.328125 110.089844 82.722656 109.089844 77.316406 109.089844 L 67.566406 109.089844 L 62.253906 136.484375 M 82.707031 98.757812 C 90.9375 98.757812 96.941406 100.921875 100.71875 105.253906 C 104.492188 109.582031 105.628906 115.625 104.121094 123.386719 C 103.503906 126.582031 102.453125 129.503906 100.976562 132.152344 C 99.5 134.800781 97.570312 137.222656 95.1875 139.417969 C 92.34375 142.085938 89.1875 143.984375 85.714844 145.113281 C 82.242188 146.246094 77.816406 146.8125 72.441406 146.8125 L 60.25 146.8125 L 56.875 164.214844 L 42.644531 164.214844 L 55.339844 98.757812 L 82.707031 98.757812 " fill-opacity="1" fill-rule="nonzero"/><path fill="#000000" d="M 138.070312 148.160156 C 137.667969 148.160156 137.289062 147.980469 137.03125 147.667969 C 136.777344 147.359375 136.671875 146.949219 136.75 146.554688 L 142.367188 117.59375 C 142.898438 114.839844 142.769531 112.863281 141.996094 112.027344 C 141.523438 111.515625 140.101562 110.660156 135.898438 110.660156 L 125.722656 110.660156 L 118.660156 147.070312 C 118.539062 147.703125 117.984375 148.160156 117.339844 148.160156 L 103.222656 148.160156 C 102.820312 148.160156 102.441406 147.980469 102.183594 147.667969 C 101.929688 147.359375 101.828125 146.949219 101.902344 146.554688 L 114.597656 81.097656 C 114.722656 80.464844 115.277344 80.007812 115.917969 80.007812 L 130.035156 80.007812 C 130.4375 80.007812 130.820312 80.1875 131.074219 80.5 C 131.328125 80.808594 131.433594 81.21875 131.355469 81.613281 L 128.292969 97.410156 L 139.238281 97.410156 C 147.578125 97.410156 153.230469 98.882812 156.523438 101.914062 C 159.882812 105.007812 160.929688 109.949219 159.636719 116.609375 L 153.730469 147.070312 C 153.609375 147.703125 153.054688 148.160156 152.410156 148.160156 Z M 138.070312 148.160156 " fill-opacity="1" fill-rule="nonzero"/><path fill="#ffffff" d="M 130.035156 78.660156 L 115.917969 78.660156 C 114.632812 78.660156 113.523438 79.574219 113.28125 80.84375 L 100.582031 146.296875 C 100.429688 147.089844 100.636719 147.90625 101.148438 148.527344 C 101.660156 149.148438 102.417969 149.507812 103.222656 149.507812 L 117.339844 149.507812 C 118.628906 149.507812 119.734375 148.59375 119.980469 147.328125 L 126.832031 112.007812 L 135.898438 112.007812 C 140.09375 112.007812 140.972656 112.90625 141.007812 112.945312 C 141.261719 113.21875 141.597656 114.488281 141.046875 117.335938 L 135.429688 146.296875 C 135.277344 147.089844 135.484375 147.90625 135.996094 148.527344 C 136.503906 149.148438 137.265625 149.507812 138.070312 149.507812 L 152.410156 149.507812 C 153.699219 149.507812 154.804688 148.59375 155.050781 147.328125 L 160.957031 116.867188 C 162.34375 109.714844 161.15625 104.351562 157.433594 100.921875 C 153.882812 97.652344 147.929688 96.0625 139.238281 96.0625 L 129.921875 96.0625 L 132.675781 81.871094 C 132.828125 81.082031 132.625 80.261719 132.113281 79.640625 C 131.601562 79.019531 130.839844 78.660156 130.035156 78.660156 M 130.035156 81.355469 L 126.660156 98.757812 L 139.238281 98.757812 C 147.152344 98.757812 152.609375 100.144531 155.613281 102.90625 C 158.621094 105.675781 159.519531 110.15625 158.320312 116.351562 L 152.410156 146.8125 L 138.070312 146.8125 L 143.6875 117.851562 C 144.324219 114.554688 144.089844 112.308594 142.980469 111.109375 C 141.871094 109.914062 139.507812 109.3125 135.898438 109.3125 L 124.613281 109.3125 L 117.339844 146.8125 L 103.222656 146.8125 L 115.917969 81.355469 L 130.035156 81.355469 " fill-opacity="1" fill-rule="nonzero"/><path fill="#000000" d="M 181.976562 135.136719 C 187.382812 135.136719 191.421875 134.136719 193.976562 132.167969 C 196.5 130.21875 198.246094 126.839844 199.164062 122.128906 C 200.015625 117.722656 199.691406 114.648438 198.195312 112.988281 C 196.667969 111.296875 193.367188 110.4375 188.382812 110.4375 L 179.742188 110.4375 L 174.953125 135.136719 Z M 153.714844 165.5625 C 153.3125 165.5625 152.929688 165.382812 152.675781 165.074219 C 152.421875 164.761719 152.316406 164.351562 152.394531 163.957031 L 165.089844 98.5 C 165.210938 97.867188 165.765625 97.410156 166.410156 97.410156 L 193.773438 97.410156 C 202.375 97.410156 208.773438 99.75 212.796875 104.367188 C 216.84375 109.007812 218.089844 115.492188 216.511719 123.644531 C 215.867188 126.964844 214.757812 130.046875 213.21875 132.808594 C 211.679688 135.574219 209.640625 138.128906 207.164062 140.410156 C 204.199219 143.191406 200.84375 145.210938 197.199219 146.394531 C 193.609375 147.566406 189.003906 148.160156 183.507812 148.160156 L 172.425781 148.160156 L 169.261719 164.472656 C 169.140625 165.105469 168.585938 165.5625 167.941406 165.5625 Z M 153.714844 165.5625 " fill-opacity="1" fill-rule="nonzero"/><path fill="#ffffff" d="M 180.851562 111.78125 L 188.382812 111.78125 C 194.398438 111.78125 196.488281 113.105469 197.199219 113.894531 C 198.378906 115.203125 198.597656 117.960938 197.84375 121.871094 C 196.992188 126.25 195.414062 129.355469 193.15625 131.097656 C 190.839844 132.882812 187.082031 133.789062 181.976562 133.789062 L 176.582031 133.789062 Z M 193.773438 96.0625 L 166.410156 96.0625 C 165.121094 96.0625 164.015625 96.976562 163.769531 98.246094 L 151.074219 163.703125 C 150.921875 164.492188 151.128906 165.308594 151.636719 165.929688 C 152.148438 166.550781 152.910156 166.910156 153.714844 166.910156 L 167.941406 166.910156 C 169.230469 166.910156 170.335938 165.996094 170.582031 164.730469 L 173.535156 149.507812 L 183.507812 149.507812 C 189.144531 149.507812 193.894531 148.890625 197.617188 147.675781 C 201.441406 146.429688 204.964844 144.316406 208.082031 141.394531 C 210.660156 139.019531 212.785156 136.351562 214.394531 133.464844 C 216.003906 130.578125 217.160156 127.359375 217.828125 123.898438 C 219.496094 115.320312 218.140625 108.449219 213.808594 103.480469 C 209.519531 98.558594 202.777344 96.0625 193.773438 96.0625 M 173.320312 136.484375 L 181.976562 136.484375 C 187.714844 136.484375 191.988281 135.402344 194.796875 133.234375 C 197.605469 131.066406 199.496094 127.453125 200.480469 122.386719 C 201.425781 117.519531 200.996094 114.089844 199.195312 112.089844 C 197.394531 110.089844 193.789062 109.089844 188.382812 109.089844 L 178.632812 109.089844 L 173.320312 136.484375 M 193.773438 98.757812 C 202.003906 98.757812 208.011719 100.921875 211.785156 105.253906 C 215.558594 109.582031 216.695312 115.625 215.191406 123.386719 C 214.570312 126.582031 213.519531 129.503906 212.046875 132.152344 C 210.566406 134.800781 208.636719 137.222656 206.253906 139.417969 C 203.414062 142.085938 200.257812 143.984375 196.78125 145.113281 C 193.308594 146.246094 188.886719 146.8125 183.507812 146.8125 L 171.316406 146.8125 L 167.941406 164.214844 L 153.714844 164.214844 L 166.410156 98.757812 L 193.773438 98.757812 " fill-opacity="1" fill-rule="nonzero"/></svg>