<svg xmlns="http://www.w3.org/2000/svg" xmlns:xlink="http://www.w3.org/1999/xlink" width="340" zoomAndPan="magnify" viewBox="0 0 255 254.999984" height="340" preserveAspectRatio="xMidYMid meet" version="1.0"><defs><clipPath id="595359a7de"><path d="M 1 2.476562 L 189 2.476562 L 189 189 L 1 189 Z M 1 2.476562 " clip-rule="nonzero"/></clipPath><clipPath id="9453b5b380"><path d="M 126.398438 2.476562 C 62.277344 2.476562 66.28125 30.070312 66.28125 30.070312 L 66.355469 58.65625 L 127.542969 58.65625 L 127.542969 67.238281 L 42.050781 67.238281 C 42.050781 67.238281 1.019531 62.621094 1.019531 126.824219 C 1.019531 191.027344 36.832031 188.75 36.832031 188.75 L 58.207031 188.75 L 58.207031 158.957031 C 58.207031 158.957031 57.054688 123.417969 93.445312 123.417969 L 154.136719 123.417969 C 154.136719 123.417969 188.234375 123.964844 188.234375 90.71875 L 188.234375 35.746094 C 188.234375 35.746094 193.410156 2.476562 126.398438 2.476562 Z M 92.660156 21.699219 C 94.105469 21.699219 95.539062 21.980469 96.875 22.527344 C 98.210938 23.078125 99.425781 23.882812 100.445312 24.894531 C 101.46875 25.910156 102.28125 27.117188 102.832031 28.441406 C 103.386719 29.765625 103.667969 31.1875 103.667969 32.625 C 103.667969 34.058594 103.386719 35.480469 102.832031 36.804688 C 102.28125 38.128906 101.46875 39.335938 100.445312 40.351562 C 99.425781 41.363281 98.210938 42.167969 96.875 42.71875 C 95.539062 43.265625 94.105469 43.546875 92.660156 43.546875 C 91.214844 43.546875 89.78125 43.265625 88.445312 42.71875 C 87.109375 42.167969 85.894531 41.363281 84.871094 40.351562 C 83.851562 39.335938 83.039062 38.128906 82.488281 36.804688 C 81.933594 35.480469 81.652344 34.058594 81.652344 32.625 C 81.652344 31.1875 81.933594 29.765625 82.488281 28.441406 C 83.039062 27.117188 83.851562 25.910156 84.871094 24.894531 C 85.894531 23.882812 87.109375 23.078125 88.445312 22.527344 C 89.78125 21.980469 91.214844 21.699219 92.660156 21.699219 Z M 92.660156 21.699219 " clip-rule="nonzero"/></clipPath><linearGradient x1="0.104273" gradientTransform="matrix(8.07358, 0, 0, 8.056451, 1.019196, 2.475)" y1="-0.104743" x2="23.774391" gradientUnits="userSpaceOnUse" y2="23.459456" id="d04aeb4d50"><stop stop-opacity="1" stop-color="rgb(21.958923%, 49.409485%, 72.158813%)" offset="0"/><stop stop-opacity="1" stop-color="rgb(21.957397%, 49.394226%, 72.132874%)" offset="0.125"/><stop stop-opacity="1" stop-color="rgb(21.946716%, 49.279785%, 71.937561%)" offset="0.140625"/><stop stop-opacity="1" stop-color="rgb(21.928406%, 49.082947%, 71.598816%)" offset="0.15625"/><stop stop-opacity="1" stop-color="rgb(21.910095%, 48.884583%, 71.260071%)" offset="0.171875"/><stop stop-opacity="1" stop-color="rgb(21.890259%, 48.687744%, 70.921326%)" offset="0.1875"/><stop stop-opacity="1" stop-color="rgb(21.871948%, 48.48938%, 70.582581%)" offset="0.203125"/><stop stop-opacity="1" stop-color="rgb(21.853638%, 48.292542%, 70.243835%)" offset="0.21875"/><stop stop-opacity="1" stop-color="rgb(21.833801%, 48.095703%, 69.90509%)" offset="0.234375"/><stop stop-opacity="1" stop-color="rgb(21.815491%, 47.897339%, 69.566345%)" offset="0.25"/><stop stop-opacity="1" stop-color="rgb(21.79718%, 47.7005%, 69.2276%)" offset="0.265625"/><stop stop-opacity="1" stop-color="rgb(21.77887%, 47.503662%, 68.888855%)" offset="0.28125"/><stop stop-opacity="1" stop-color="rgb(21.759033%, 47.305298%, 68.55011%)" offset="0.296875"/><stop stop-opacity="1" stop-color="rgb(21.740723%, 47.108459%, 68.211365%)" offset="0.3125"/><stop stop-opacity="1" stop-color="rgb(21.722412%, 46.910095%, 67.874146%)" offset="0.328125"/><stop stop-opacity="1" stop-color="rgb(21.704102%, 46.713257%, 67.5354%)" offset="0.34375"/><stop stop-opacity="1" stop-color="rgb(21.684265%, 46.516418%, 67.196655%)" offset="0.359375"/><stop stop-opacity="1" stop-color="rgb(21.665955%, 46.318054%, 66.85791%)" offset="0.375"/><stop stop-opacity="1" stop-color="rgb(21.647644%, 46.121216%, 66.519165%)" offset="0.390625"/><stop stop-opacity="1" stop-color="rgb(21.629333%, 45.924377%, 66.18042%)" offset="0.40625"/><stop stop-opacity="1" stop-color="rgb(21.609497%, 45.726013%, 65.841675%)" offset="0.421875"/><stop stop-opacity="1" stop-color="rgb(21.591187%, 45.529175%, 65.50293%)" offset="0.4375"/><stop stop-opacity="1" stop-color="rgb(21.572876%, 45.330811%, 65.164185%)" offset="0.453125"/><stop stop-opacity="1" stop-color="rgb(21.554565%, 45.133972%, 64.825439%)" offset="0.46875"/><stop stop-opacity="1" stop-color="rgb(21.534729%, 44.937134%, 64.486694%)" offset="0.484375"/><stop stop-opacity="1" stop-color="rgb(21.516418%, 44.73877%, 64.147949%)" offset="0.494369"/><stop stop-opacity="1" stop-color="rgb(21.507263%, 44.641113%, 63.978577%)" offset="0.5"/><stop stop-opacity="1" stop-color="rgb(21.498108%, 44.541931%, 63.809204%)" offset="0.505631"/><stop stop-opacity="1" stop-color="rgb(21.488953%, 44.444275%, 63.639832%)" offset="0.515625"/><stop stop-opacity="1" stop-color="rgb(21.479797%, 44.345093%, 63.470459%)" offset="0.53125"/><stop stop-opacity="1" stop-color="rgb(21.459961%, 44.146729%, 63.131714%)" offset="0.546875"/><stop stop-opacity="1" stop-color="rgb(21.44165%, 43.94989%, 62.792969%)" offset="0.5625"/><stop stop-opacity="1" stop-color="rgb(21.42334%, 43.751526%, 62.454224%)" offset="0.578125"/><stop stop-opacity="1" stop-color="rgb(21.403503%, 43.554688%, 62.115479%)" offset="0.59375"/><stop stop-opacity="1" stop-color="rgb(21.385193%, 43.357849%, 61.776733%)" offset="0.609375"/><stop stop-opacity="1" stop-color="rgb(21.366882%, 43.159485%, 61.437988%)" offset="0.625"/><stop stop-opacity="1" stop-color="rgb(21.348572%, 42.962646%, 61.099243%)" offset="0.640625"/><stop stop-opacity="1" stop-color="rgb(21.328735%, 42.765808%, 60.760498%)" offset="0.65625"/><stop stop-opacity="1" stop-color="rgb(21.310425%, 42.567444%, 60.421753%)" offset="0.671875"/><stop stop-opacity="1" stop-color="rgb(21.292114%, 42.370605%, 60.083008%)" offset="0.6875"/><stop stop-opacity="1" stop-color="rgb(21.273804%, 42.172241%, 59.744263%)" offset="0.703125"/><stop stop-opacity="1" stop-color="rgb(21.253967%, 41.975403%, 59.405518%)" offset="0.71875"/><stop stop-opacity="1" stop-color="rgb(21.235657%, 41.778564%, 59.066772%)" offset="0.734375"/><stop stop-opacity="1" stop-color="rgb(21.217346%, 41.5802%, 58.729553%)" offset="0.75"/><stop stop-opacity="1" stop-color="rgb(21.199036%, 41.383362%, 58.390808%)" offset="0.765625"/><stop stop-opacity="1" stop-color="rgb(21.183777%, 41.2323%, 58.129883%)" offset="0.78125"/><stop stop-opacity="1" stop-color="rgb(21.179199%, 41.178894%, 58.039856%)" offset="0.8125"/><stop stop-opacity="1" stop-color="rgb(21.179199%, 41.178894%, 58.039856%)" offset="0.875"/><stop stop-opacity="1" stop-color="rgb(21.179199%, 41.178894%, 58.039856%)" offset="1"/></linearGradient><clipPath id="3268ca8ccf"><path d="M 66 65 L 254 65 L 254 252 L 66 252 Z M 66 65 " clip-rule="nonzero"/></clipPath><clipPath id="bf1a8f8b4c"><path d="M 128.222656 251.816406 C 192.34375 251.816406 188.339844 224.222656 188.339844 224.222656 L 188.265625 195.636719 L 127.078125 195.636719 L 127.078125 187.054688 L 212.570312 187.054688 C 212.570312 187.054688 253.601562 191.671875 253.601562 127.46875 C 253.601562 63.265625 217.789062 65.542969 217.789062 65.542969 L 196.414062 65.542969 L 196.414062 95.332031 C 196.414062 95.332031 197.566406 130.871094 161.171875 130.871094 L 100.484375 130.871094 C 100.484375 130.871094 66.386719 130.324219 66.386719 163.574219 L 66.386719 218.546875 C 66.386719 218.546875 61.210938 251.816406 128.21875 251.816406 Z M 161.960938 232.59375 C 160.515625 232.59375 159.082031 232.3125 157.746094 231.765625 C 156.410156 231.21875 155.195312 230.414062 154.175781 229.398438 C 153.152344 228.382812 152.339844 227.179688 151.789062 225.851562 C 151.234375 224.527344 150.953125 223.105469 150.953125 221.671875 C 150.953125 220.234375 151.234375 218.8125 151.789062 217.488281 C 152.339844 216.164062 153.152344 214.957031 154.171875 213.941406 C 155.195312 212.929688 156.410156 212.125 157.746094 211.574219 C 159.082031 211.027344 160.515625 210.746094 161.960938 210.746094 C 163.40625 210.746094 164.839844 211.027344 166.175781 211.574219 C 167.511719 212.125 168.726562 212.929688 169.746094 213.941406 C 170.769531 214.957031 171.582031 216.160156 172.132812 217.488281 C 172.6875 218.8125 172.96875 220.234375 172.96875 221.667969 C 172.96875 223.105469 172.6875 224.523438 172.132812 225.851562 C 171.582031 227.175781 170.769531 228.382812 169.746094 229.394531 C 168.726562 230.410156 167.511719 231.214844 166.175781 231.765625 C 164.839844 232.3125 163.40625 232.59375 161.960938 232.59375 Z M 161.960938 232.59375 " clip-rule="nonzero"/></clipPath><linearGradient x1="7.344533" gradientTransform="matrix(8.07358, 0, 0, 8.056451, 1.019196, 2.475)" y1="7.662001" x2="31.54855" gradientUnits="userSpaceOnUse" y2="30.671967" id="0e4d4c3fc6"><stop stop-opacity="1" stop-color="rgb(100%, 87.838745%, 32.159424%)" offset="0"/><stop stop-opacity="1" stop-color="rgb(100%, 87.838745%, 32.159424%)" offset="0.125"/><stop stop-opacity="1" stop-color="rgb(100%, 87.838745%, 32.159424%)" offset="0.1875"/><stop stop-opacity="1" stop-color="rgb(100%, 87.799072%, 32.113647%)" offset="0.21875"/><stop stop-opacity="1" stop-color="rgb(100%, 87.6297%, 31.919861%)" offset="0.234375"/><stop stop-opacity="1" stop-color="rgb(100%, 87.3703%, 31.625366%)" offset="0.25"/><stop stop-opacity="1" stop-color="rgb(100%, 87.110901%, 31.329346%)" offset="0.265625"/><stop stop-opacity="1" stop-color="rgb(100%, 86.849976%, 31.033325%)" offset="0.28125"/><stop stop-opacity="1" stop-color="rgb(100%, 86.590576%, 30.738831%)" offset="0.296875"/><stop stop-opacity="1" stop-color="rgb(100%, 86.331177%, 30.44281%)" offset="0.3125"/><stop stop-opacity="1" stop-color="rgb(100%, 86.071777%, 30.14679%)" offset="0.328125"/><stop stop-opacity="1" stop-color="rgb(100%, 85.812378%, 29.852295%)" offset="0.34375"/><stop stop-opacity="1" stop-color="rgb(100%, 85.552979%, 29.556274%)" offset="0.359375"/><stop stop-opacity="1" stop-color="rgb(100%, 85.292053%, 29.260254%)" offset="0.375"/><stop stop-opacity="1" stop-color="rgb(100%, 85.032654%, 28.965759%)" offset="0.390625"/><stop stop-opacity="1" stop-color="rgb(100%, 84.773254%, 28.669739%)" offset="0.40625"/><stop stop-opacity="1" stop-color="rgb(100%, 84.513855%, 28.375244%)" offset="0.421875"/><stop stop-opacity="1" stop-color="rgb(100%, 84.254456%, 28.079224%)" offset="0.4375"/><stop stop-opacity="1" stop-color="rgb(100%, 83.995056%, 27.783203%)" offset="0.453125"/><stop stop-opacity="1" stop-color="rgb(100%, 83.734131%, 27.488708%)" offset="0.46875"/><stop stop-opacity="1" stop-color="rgb(100%, 83.474731%, 27.192688%)" offset="0.482851"/><stop stop-opacity="1" stop-color="rgb(100%, 83.345032%, 27.044678%)" offset="0.484375"/><stop stop-opacity="1" stop-color="rgb(100%, 83.215332%, 26.896667%)" offset="0.5"/><stop stop-opacity="1" stop-color="rgb(100%, 82.955933%, 26.602173%)" offset="0.515625"/><stop stop-opacity="1" stop-color="rgb(100%, 82.696533%, 26.306152%)" offset="0.517149"/><stop stop-opacity="1" stop-color="rgb(100%, 82.566833%, 26.158142%)" offset="0.53125"/><stop stop-opacity="1" stop-color="rgb(100%, 82.437134%, 26.010132%)" offset="0.546875"/><stop stop-opacity="1" stop-color="rgb(100%, 82.177734%, 25.715637%)" offset="0.5625"/><stop stop-opacity="1" stop-color="rgb(100%, 81.916809%, 25.419617%)" offset="0.578125"/><stop stop-opacity="1" stop-color="rgb(100%, 81.65741%, 25.123596%)" offset="0.59375"/><stop stop-opacity="1" stop-color="rgb(100%, 81.39801%, 24.829102%)" offset="0.609375"/><stop stop-opacity="1" stop-color="rgb(100%, 81.138611%, 24.533081%)" offset="0.625"/><stop stop-opacity="1" stop-color="rgb(100%, 80.879211%, 24.237061%)" offset="0.640625"/><stop stop-opacity="1" stop-color="rgb(100%, 80.619812%, 23.942566%)" offset="0.65625"/><stop stop-opacity="1" stop-color="rgb(100%, 80.358887%, 23.646545%)" offset="0.671875"/><stop stop-opacity="1" stop-color="rgb(100%, 80.099487%, 23.350525%)" offset="0.6875"/><stop stop-opacity="1" stop-color="rgb(100%, 79.840088%, 23.05603%)" offset="0.703125"/><stop stop-opacity="1" stop-color="rgb(100%, 79.580688%, 22.76001%)" offset="0.71875"/><stop stop-opacity="1" stop-color="rgb(100%, 79.321289%, 22.463989%)" offset="0.734375"/><stop stop-opacity="1" stop-color="rgb(100%, 79.06189%, 22.169495%)" offset="0.75"/><stop stop-opacity="1" stop-color="rgb(100%, 78.800964%, 21.873474%)" offset="0.765625"/><stop stop-opacity="1" stop-color="rgb(100%, 78.541565%, 21.577454%)" offset="0.78125"/><stop stop-opacity="1" stop-color="rgb(100%, 78.282166%, 21.282959%)" offset="0.796875"/><stop stop-opacity="1" stop-color="rgb(100%, 78.022766%, 20.986938%)" offset="0.8125"/><stop stop-opacity="1" stop-color="rgb(100%, 77.763367%, 20.690918%)" offset="0.828125"/><stop stop-opacity="1" stop-color="rgb(100%, 77.503967%, 20.396423%)" offset="0.84375"/><stop stop-opacity="1" stop-color="rgb(100%, 77.243042%, 20.100403%)" offset="0.859375"/><stop stop-opacity="1" stop-color="rgb(100%, 76.983643%, 19.804382%)" offset="0.875"/><stop stop-opacity="1" stop-color="rgb(100%, 76.724243%, 19.509888%)" offset="0.890625"/><stop stop-opacity="1" stop-color="rgb(100%, 76.531982%, 19.290161%)" offset="0.90625"/><stop stop-opacity="1" stop-color="rgb(100%, 76.469421%, 19.219971%)" offset="0.9375"/><stop stop-opacity="1" stop-color="rgb(100%, 76.469421%, 19.219971%)" offset="1"/></linearGradient></defs><g clip-path="url(#595359a7de)"><g clip-path="url(#9453b5b380)"><path fill="url(#d04aeb4d50)" d="M 1.019531 2.476562 L 1.019531 191.027344 L 193.410156 191.027344 L 193.410156 2.476562 Z M 1.019531 2.476562 " fill-rule="nonzero"/></g></g><g clip-path="url(#3268ca8ccf)"><g clip-path="url(#bf1a8f8b4c)"><path fill="url(#0e4d4c3fc6)" d="M 61.210938 63.265625 L 61.210938 251.816406 L 253.601562 251.816406 L 253.601562 63.265625 Z M 61.210938 63.265625 " fill-rule="nonzero"/></g></g></svg>