<svg xmlns="http://www.w3.org/2000/svg" xmlns:xlink="http://www.w3.org/1999/xlink" width="340" zoomAndPan="magnify" viewBox="0 0 255 254.999984" height="340" preserveAspectRatio="xMidYMid meet" version="1.0"><defs><clipPath id="c09eede4c7"><path d="M 1.316406 74 L 253.316406 74 L 253.316406 180 L 1.316406 180 Z M 1.316406 74 " clip-rule="nonzero"/></clipPath><clipPath id="0a7b8e5271"><path d="M 48 14.09375 L 206 14.09375 L 206 239 L 48 239 Z M 48 14.09375 " clip-rule="nonzero"/></clipPath></defs><path fill="#61dafb" d="M 127.21875 148.730469 C 139.359375 148.730469 149.199219 138.9375 149.199219 126.855469 C 149.199219 114.773438 139.359375 104.980469 127.21875 104.980469 C 115.082031 104.980469 105.242188 114.773438 105.242188 126.855469 C 105.242188 138.9375 115.082031 148.730469 127.21875 148.730469 Z M 127.21875 148.730469 " fill-opacity="1" fill-rule="nonzero"/><g clip-path="url(#c09eede4c7)"><path fill="#61dafb" d="M 23.875 115.347656 C 18.890625 119.824219 17.253906 123.726562 17.253906 126.855469 C 17.253906 129.984375 18.890625 133.886719 23.875 138.367188 C 28.855469 142.839844 36.511719 147.238281 46.65625 151.089844 C 66.882812 158.777344 95.367188 163.699219 127.21875 163.699219 C 159.074219 163.699219 187.558594 158.777344 207.785156 151.089844 C 217.925781 147.238281 225.585938 142.839844 230.566406 138.367188 C 235.550781 133.886719 237.1875 129.984375 237.1875 126.855469 C 237.1875 123.726562 235.550781 119.824219 230.566406 115.347656 C 225.585938 110.871094 217.925781 106.476562 207.785156 102.621094 C 187.558594 94.933594 159.074219 90.011719 127.21875 90.011719 C 95.367188 90.011719 66.882812 94.933594 46.65625 102.621094 C 36.511719 106.476562 28.855469 110.871094 23.875 115.347656 Z M 41 87.707031 C 63.453125 79.175781 93.941406 74.0625 127.21875 74.0625 C 160.5 74.0625 190.984375 79.175781 213.441406 87.707031 C 224.644531 91.964844 234.257812 97.226562 241.210938 103.476562 C 248.164062 109.722656 253.125 117.609375 253.125 126.855469 C 253.125 136.105469 248.164062 143.992188 241.210938 150.238281 C 234.257812 156.484375 224.644531 161.746094 213.441406 166.003906 C 190.984375 174.539062 160.5 179.648438 127.21875 179.648438 C 93.941406 179.648438 63.453125 174.539062 41 166.003906 C 29.796875 161.746094 20.183594 156.484375 13.230469 150.238281 C 6.277344 143.992188 1.316406 136.105469 1.316406 126.855469 C 1.316406 117.609375 6.277344 109.722656 13.230469 103.476562 C 20.183594 97.226562 29.796875 91.964844 41 87.707031 Z M 41 87.707031 " fill-opacity="1" fill-rule="evenodd"/></g><g clip-path="url(#0a7b8e5271)"><path fill="#61dafb" d="M 85.628906 32.039062 C 79.246094 29.984375 75.007812 30.515625 72.253906 32.097656 C 69.496094 33.679688 66.917969 37.070312 65.515625 43.597656 C 64.113281 50.125 64.117188 58.914062 65.832031 69.578125 C 69.257812 90.84375 79.210938 117.84375 95.132812 145.292969 C 111.054688 172.742188 129.570312 194.824219 146.363281 208.410156 C 154.785156 215.21875 162.429688 219.617188 168.8125 221.671875 C 175.195312 223.726562 179.433594 223.199219 182.1875 221.613281 C 184.941406 220.03125 187.523438 216.644531 188.925781 210.117188 C 190.328125 203.589844 190.324219 194.796875 188.605469 184.132812 C 185.183594 162.867188 175.230469 135.867188 159.308594 108.417969 C 143.382812 80.96875 124.867188 58.886719 108.074219 45.304688 C 99.65625 38.492188 92.007812 34.09375 85.628906 32.039062 Z M 118.121094 32.953125 C 136.785156 48.050781 156.484375 71.78125 173.128906 100.476562 C 189.773438 129.167969 200.574219 158.015625 204.375 181.648438 C 206.273438 193.4375 206.503906 204.363281 204.542969 213.484375 C 202.582031 222.609375 198.203125 230.804688 190.1875 235.410156 C 182.175781 240.015625 172.855469 239.691406 163.9375 236.820312 C 155.019531 233.949219 145.628906 228.289062 136.320312 220.757812 C 117.65625 205.660156 97.957031 181.929688 81.3125 153.238281 C 64.667969 124.542969 53.867188 95.699219 50.0625 72.0625 C 48.167969 60.273438 47.9375 49.347656 49.898438 40.226562 C 51.859375 31.101562 56.238281 22.90625 64.25 18.300781 C 72.265625 13.699219 81.585938 14.019531 90.503906 16.894531 C 99.421875 19.765625 108.8125 25.421875 118.121094 32.953125 Z M 118.121094 32.953125 " fill-opacity="1" fill-rule="evenodd"/><path fill="#61dafb" d="M 188.925781 43.597656 C 187.523438 37.070312 184.941406 33.679688 182.1875 32.097656 C 179.433594 30.515625 175.195312 29.984375 168.8125 32.039062 C 162.429688 34.09375 154.785156 38.492188 146.363281 45.304688 C 129.570312 58.886719 111.054688 80.96875 95.132812 108.417969 C 79.210938 135.867188 69.257812 162.867188 65.832031 184.132812 C 64.117188 194.796875 64.113281 203.589844 65.515625 210.117188 C 66.917969 216.644531 69.496094 220.03125 72.253906 221.613281 C 75.007812 223.199219 79.246094 223.726562 85.628906 221.671875 C 92.007812 219.617188 99.65625 215.21875 108.074219 208.410156 C 124.867188 194.824219 143.382812 172.742188 159.308594 145.292969 C 175.230469 117.84375 185.183594 90.84375 188.605469 69.578125 C 190.324219 58.914062 190.328125 50.125 188.925781 43.597656 Z M 204.375 72.0625 C 200.574219 95.699219 189.773438 124.542969 173.128906 153.238281 C 156.484375 181.929688 136.785156 205.660156 118.121094 220.757812 C 108.8125 228.289062 99.421875 233.949219 90.503906 236.820312 C 81.585938 239.691406 72.265625 240.015625 64.25 235.410156 C 56.238281 230.804688 51.859375 222.609375 49.898438 213.484375 C 47.9375 204.363281 48.167969 193.4375 50.0625 181.648438 C 53.867188 158.015625 64.667969 129.167969 81.3125 100.476562 C 97.957031 71.78125 117.65625 48.050781 136.320312 32.953125 C 145.628906 25.421875 155.019531 19.765625 163.9375 16.894531 C 172.855469 14.019531 182.175781 13.699219 190.1875 18.300781 C 198.203125 22.90625 202.582031 31.101562 204.542969 40.226562 C 206.503906 49.347656 206.273438 60.273438 204.375 72.0625 Z M 204.375 72.0625 " fill-opacity="1" fill-rule="evenodd"/></g></svg>