<svg xmlns="http://www.w3.org/2000/svg" xmlns:xlink="http://www.w3.org/1999/xlink" width="340" zoomAndPan="magnify" viewBox="0 0 255 254.999984" height="340" preserveAspectRatio="xMidYMid meet" version="1.0"><defs><clipPath id="0c3fdd23b1"><path d="M 0 51.925781 L 248 51.925781 L 248 201 L 0 201 Z M 0 51.925781 " clip-rule="nonzero"/></clipPath></defs><g clip-path="url(#0c3fdd23b1)"><path fill="#06b6d4" d="M 123.964844 51.925781 C 90.96875 51.925781 70.34375 68.460938 62.09375 101.527344 C 74.46875 84.992188 88.90625 78.792969 105.402344 82.925781 C 114.816406 85.285156 121.542969 92.128906 128.992188 99.703125 C 141.125 112.042969 155.164062 126.328125 185.835938 126.328125 C 218.828125 126.328125 239.453125 109.792969 247.703125 76.726562 C 235.328125 93.257812 220.894531 99.460938 204.394531 95.328125 C 194.984375 92.96875 188.253906 86.125 180.804688 78.550781 C 168.675781 66.210938 154.632812 51.925781 123.964844 51.925781 Z M 62.09375 126.328125 C 29.097656 126.328125 8.472656 142.859375 0.226562 175.925781 C 12.597656 159.394531 27.035156 153.191406 43.535156 157.328125 C 52.945312 159.6875 59.675781 166.53125 67.121094 174.105469 C 79.253906 186.445312 93.296875 200.730469 123.964844 200.730469 C 156.960938 200.730469 177.585938 184.195312 185.835938 151.128906 C 173.460938 167.660156 159.023438 173.863281 142.527344 169.726562 C 133.113281 167.371094 126.382812 160.523438 118.9375 152.953125 C 106.804688 140.613281 92.765625 126.328125 62.09375 126.328125 Z M 62.09375 126.328125 " fill-opacity="1" fill-rule="nonzero"/></g></svg>