<svg xmlns="http://www.w3.org/2000/svg" xmlns:xlink="http://www.w3.org/1999/xlink" width="340" zoomAndPan="magnify" viewBox="0 0 255 254.999984" height="340" preserveAspectRatio="xMidYMid meet" version="1.0"><path fill="#017acb" d="M 0 -0.296875 L 255.207031 -0.296875 L 255.207031 254.910156 L 0 254.910156 Z M 0 -0.296875 " fill-opacity="1" fill-rule="nonzero"/><path fill="#ffffff" d="M 122.539062 94.210938 L 134.78125 94.210938 L 134.78125 115.34375 L 101.683594 115.34375 L 101.683594 209.375 L 100.808594 209.613281 C 99.613281 209.933594 83.859375 209.933594 80.46875 209.574219 L 77.757812 209.332031 L 77.757812 115.34375 L 44.660156 115.34375 L 44.660156 94.210938 L 55.148438 94.089844 C 60.890625 94.011719 75.644531 94.011719 87.925781 94.089844 C 100.210938 94.171875 115.761719 94.210938 122.539062 94.210938 Z M 215.96875 199.402344 C 211.105469 204.546875 205.882812 207.417969 197.1875 209.773438 C 193.398438 210.808594 192.761719 210.847656 184.230469 210.808594 C 175.695312 210.769531 175.019531 210.769531 170.871094 209.691406 C 160.144531 206.941406 151.492188 201.558594 145.589844 193.941406 C 143.914062 191.789062 141.164062 187.320312 141.164062 186.765625 C 141.164062 186.605469 141.5625 186.246094 142.078125 186.003906 C 142.597656 185.765625 143.675781 185.089844 144.550781 184.570312 C 145.429688 184.050781 147.023438 183.09375 148.101562 182.535156 C 149.179688 181.976562 152.289062 180.144531 155 178.507812 C 157.710938 176.875 160.183594 175.558594 160.460938 175.558594 C 160.742188 175.558594 161.261719 176.117188 161.660156 176.792969 C 164.050781 180.820312 169.632812 185.964844 173.582031 187.71875 C 176.015625 188.757812 181.398438 189.914062 183.988281 189.914062 C 186.382812 189.914062 190.769531 188.875 193.121094 187.800781 C 195.632812 186.644531 196.910156 185.488281 198.425781 183.175781 C 199.460938 181.539062 199.582031 181.101562 199.539062 177.992188 C 199.539062 175.121094 199.382812 174.320312 198.585938 173.007812 C 196.351562 169.335938 193.320312 167.421875 181.039062 162 C 168.359375 156.378906 162.65625 153.027344 158.03125 148.523438 C 154.601562 145.171875 153.921875 144.253906 151.769531 140.066406 C 148.976562 134.683594 148.621094 132.929688 148.578125 124.914062 C 148.539062 119.292969 148.660156 117.457031 149.257812 115.542969 C 150.09375 112.671875 152.804688 107.128906 154.042969 105.734375 C 156.59375 102.742188 157.511719 101.828125 159.304688 100.351562 C 164.730469 95.886719 173.183594 92.933594 181.277344 92.65625 C 182.195312 92.65625 185.226562 92.816406 188.054688 93.015625 C 196.191406 93.691406 201.734375 95.6875 207.078125 99.953125 C 211.105469 103.144531 217.207031 110.640625 216.609375 111.636719 C 216.210938 112.234375 200.300781 122.839844 199.261719 123.160156 C 198.625 123.359375 198.1875 123.121094 197.308594 122.082031 C 191.886719 115.585938 189.691406 114.1875 184.429688 113.871094 C 180.679688 113.628906 178.6875 114.070312 176.171875 115.742188 C 173.542969 117.5 172.265625 120.167969 172.265625 123.878906 C 172.304688 129.300781 174.378906 131.855469 182.035156 135.640625 C 186.980469 138.074219 191.207031 140.066406 191.527344 140.066406 C 192.003906 140.066406 202.253906 145.171875 204.925781 146.769531 C 217.367188 154.066406 222.429688 161.5625 223.746094 174.480469 C 224.703125 184.210938 221.953125 193.105469 215.96875 199.402344 Z M 215.96875 199.402344 " fill-opacity="1" fill-rule="nonzero"/></svg>