<svg xmlns="http://www.w3.org/2000/svg" xmlns:xlink="http://www.w3.org/1999/xlink" width="340" zoomAndPan="magnify" viewBox="0 0 255 254.999984" height="340" preserveAspectRatio="xMidYMid meet" version="1.0"><defs><clipPath id="882b129f2c"><path d="M 0 19.148438 L 255 19.148438 L 255 235.898438 L 0 235.898438 Z M 0 19.148438 " clip-rule="nonzero"/></clipPath></defs><g clip-path="url(#882b129f2c)"><path fill="#f71963" d="M 252.632812 47.003906 L 157.234375 225.558594 C 149.863281 239.363281 129.972656 239.335938 122.628906 225.519531 L 101.761719 186.230469 L 85.132812 217.367188 C 84.054688 219.398438 82.4375 221.09375 80.460938 222.277344 C 78.484375 223.460938 76.222656 224.085938 73.914062 224.085938 C 71.609375 224.085938 69.347656 223.460938 67.371094 222.277344 C 65.394531 221.09375 63.777344 219.398438 62.699219 217.367188 L 1.460938 102.089844 C 0.445312 100.167969 -0.0585938 98.011719 0.0078125 95.839844 C 0.0703125 93.667969 0.695312 91.546875 1.824219 89.6875 C 2.953125 87.824219 4.550781 86.285156 6.453125 85.214844 C 8.355469 84.148438 10.503906 83.585938 12.6875 83.582031 L 47.203125 83.582031 L 28.164062 47.726562 C 21.257812 34.753906 30.710938 19.148438 45.46875 19.148438 L 235.796875 19.148438 C 250.175781 19.148438 259.375 34.375 252.632812 47.003906 Z M 151.261719 91.386719 C 151.222656 89.976562 150.820312 88.597656 150.089844 87.390625 C 149.359375 86.179688 148.328125 85.179688 147.089844 84.484375 C 145.859375 83.792969 144.460938 83.425781 143.042969 83.425781 L 60.945312 83.425781 C 59.488281 83.429688 58.058594 83.808594 56.792969 84.523438 C 55.53125 85.238281 54.472656 86.265625 53.722656 87.507812 C 52.976562 88.746094 52.5625 90.160156 52.523438 91.605469 C 52.484375 93.050781 52.824219 94.484375 53.503906 95.761719 L 94.242188 172.449219 C 94.960938 173.796875 96.035156 174.921875 97.351562 175.710938 C 98.664062 176.496094 100.171875 176.910156 101.703125 176.910156 C 103.238281 176.910156 104.746094 176.496094 106.058594 175.710938 C 107.375 174.921875 108.449219 173.796875 109.167969 172.449219 L 150.300781 95.4375 C 150.96875 94.191406 151.296875 92.796875 151.261719 91.386719 Z M 151.261719 91.386719 " fill-opacity="1" fill-rule="evenodd"/></g></svg>