<svg xmlns="http://www.w3.org/2000/svg" width="340" height="340" viewBox="0 0 79 22" fill="none">
<path d="M50.0922 10.5485L45.1253 13.3227L45.1055 0.0440501C45.1055 0.0323675 45.1101 0.0211633 45.1184 0.0129024C45.1266 0.00464158 45.1378 0 45.1495 0H50.0145C50.0333 0 50.0513 0.0074619 50.0646 0.020744C50.0779 0.0340262 50.0853 0.0520412 50.0853 0.0708249L50.0922 10.5485Z" fill="white"/>
<path d="M37.9124 19.8757C37.9124 19.8089 37.8885 19.7991 37.8408 19.8463C36.5534 21.1119 35.0037 21.7951 33.1915 21.8959C31.5135 21.9892 29.9885 21.6457 28.6165 20.8655C28.1303 20.5891 27.6687 20.2476 27.232 19.8411C25.6005 18.3216 24.6737 16.3938 24.4516 14.0577C24.3555 13.0472 24.3851 12.083 24.5405 11.1651C24.9053 9.00759 25.8989 7.26001 27.5211 5.92241C28.9506 4.74374 30.6393 4.14634 32.5873 4.13021C34.6406 4.11236 36.3794 4.81773 37.8037 6.2463C37.8796 6.32231 37.9176 6.30648 37.9176 6.1988V4.69508C37.9176 4.67561 37.9253 4.65694 37.9391 4.64317C37.9528 4.6294 37.9715 4.62166 37.991 4.62166L42.3873 4.62685C42.4138 4.62685 42.4393 4.63749 42.4581 4.65644C42.4769 4.6754 42.4874 4.7011 42.4874 4.7279L42.471 21.4416C42.471 21.4533 42.4664 21.4645 42.4581 21.4727C42.4499 21.481 42.4387 21.4856 42.427 21.4856L37.9556 21.502C37.9455 21.502 37.9358 21.498 37.9287 21.4909C37.9216 21.4838 37.9176 21.4741 37.9176 21.464L37.9124 19.8757ZM31.3736 16.9321C31.9669 17.2863 32.6305 17.4745 33.3642 17.497C34.7701 17.5408 35.9201 17.0346 36.8144 15.9786C37.6339 15.0107 37.9944 13.8953 37.896 12.6326C37.7947 11.3284 37.2285 10.2683 36.1972 9.4524C35.662 9.0286 35.0725 8.75798 34.4285 8.64051C33.8801 8.54032 33.3285 8.5337 32.7737 8.62064C32.2075 8.70989 31.6832 8.91546 31.201 9.23734C30.0944 9.97552 29.4567 11.0209 29.2881 12.3735C29.127 13.6685 29.4026 14.7999 30.1151 15.7679C30.4765 16.259 30.896 16.6471 31.3736 16.9321Z" fill="white"/>
<path d="M65.5974 14.7691C65.7268 15.1889 65.9159 15.5945 66.1645 15.9861C66.7325 16.8803 67.5522 17.4472 68.6238 17.6867C69.3149 17.8411 69.9695 17.9012 70.5876 17.8673C72.3416 17.7694 73.9469 17.2304 75.4034 16.2504C75.408 16.2472 75.4132 16.245 75.4188 16.244C75.4243 16.2429 75.43 16.2431 75.4355 16.2444C75.441 16.2457 75.4462 16.2481 75.4508 16.2515C75.4554 16.2549 75.4592 16.2593 75.4621 16.2642L77.3206 19.5057C77.3265 19.5162 77.3283 19.5285 77.3258 19.5403C77.3233 19.5521 77.3165 19.5625 77.3068 19.5696C75.2178 21.1047 72.8126 21.8734 70.0912 21.8757C68.923 21.8769 67.9059 21.7758 67.0398 21.5726C65.5637 21.2259 64.3026 20.537 63.2563 19.5057C62.8587 19.1142 62.4967 18.6682 62.1704 18.1678C61.2658 16.7819 60.7824 15.254 60.7202 13.5841C60.6989 12.9997 60.7142 12.4242 60.766 11.8576C60.9196 10.1912 61.5049 8.71711 62.5218 7.43536C64.0134 5.55535 65.9556 4.49011 68.3484 4.23963C69.2577 4.14462 70.1905 4.16074 71.1469 4.288C72.1103 4.4164 73.0175 4.69653 73.8686 5.12839C74.3819 5.38865 74.8633 5.70189 75.3128 6.06811C76.7359 7.22836 77.6192 8.72056 77.9628 10.5447C78.2028 11.8224 78.2123 13.1934 77.9913 14.6577C77.9894 14.67 77.9833 14.6813 77.9741 14.6893C77.9649 14.6974 77.9533 14.7018 77.9412 14.7018L65.6431 14.7069C65.6355 14.707 65.6281 14.7089 65.6213 14.7123C65.6146 14.7157 65.6088 14.7207 65.6043 14.7267C65.5999 14.7328 65.5969 14.7398 65.5957 14.7471C65.5945 14.7545 65.5951 14.762 65.5974 14.7691ZM67.5827 11.24C69.476 11.2561 71.4177 11.2599 73.4077 11.2512C73.4164 11.2512 73.4249 11.2492 73.4328 11.2454C73.4406 11.2416 73.4475 11.2361 73.4529 11.2293C73.4584 11.2226 73.4622 11.2146 73.4643 11.2062C73.4663 11.1977 73.4664 11.1889 73.4646 11.1804C73.3397 10.6155 73.109 10.1045 72.7723 9.64732C72.4311 9.18322 72.0213 8.82277 71.5431 8.56596C71.0551 8.30396 70.5136 8.15569 69.9186 8.12115C68.6761 8.04917 67.6282 8.39955 66.7748 9.17228C66.4807 9.43831 66.2353 9.74319 66.0385 10.087C65.8486 10.4192 65.6929 10.7831 65.5715 11.1787C65.5689 11.1874 65.5684 11.1967 65.5701 11.2057C65.5717 11.2146 65.5755 11.2231 65.581 11.2303C65.5866 11.2376 65.5938 11.2434 65.602 11.2473C65.6103 11.2513 65.6193 11.2532 65.6284 11.253C66.3 11.2391 66.9514 11.2348 67.5827 11.24Z" fill="white"/>
<path d="M12.2898 13.1935C12.2668 13.1106 12.2435 13.1106 12.2199 13.1935L9.87885 21.4273C9.87543 21.4398 9.86825 21.4507 9.85841 21.4586C9.84858 21.4664 9.83665 21.4706 9.82447 21.4705L4.79802 21.4912C4.78181 21.4911 4.76607 21.4859 4.75316 21.4762C4.74024 21.4666 4.73085 21.4531 4.72637 21.4377C3.90345 18.5126 3.08916 15.6139 2.2835 12.7418C2.25242 12.6295 2.21617 12.519 2.17473 12.4102C2.12236 12.2743 2.08467 12.1651 2.06165 12.0828C1.359 9.60683 0.673038 7.1585 0.00376483 4.7378C-0.000614037 4.72152 -0.00118099 4.70445 0.00210522 4.68791C0.00539143 4.67137 0.0124427 4.65582 0.0227133 4.64245C0.032984 4.62908 0.0461964 4.61826 0.0613242 4.61083C0.076452 4.6034 0.0930885 4.59956 0.10994 4.59961L4.68407 4.61689C4.69207 4.61694 4.69983 4.61958 4.70621 4.6244C4.71258 4.62922 4.71723 4.63598 4.71946 4.64366L7.27283 13.6487C7.29412 13.7236 7.31541 13.7236 7.33671 13.6487L9.87626 4.64798C9.8798 4.636 9.88718 4.6255 9.89729 4.61803C9.9074 4.61055 9.91971 4.60652 9.93237 4.60652H14.56C14.5727 4.60657 14.5849 4.61065 14.5949 4.61813C14.6049 4.62562 14.612 4.63611 14.6153 4.64798L17.1557 13.628C17.1793 13.7097 17.2026 13.7095 17.2256 13.6271C17.9559 11.032 18.6951 8.42614 19.4432 5.80967C19.6124 5.21716 19.728 4.83281 19.7902 4.65662C19.7942 4.645 19.802 4.63493 19.8125 4.6278C19.823 4.62068 19.8358 4.61686 19.8489 4.61689L24.4869 4.60652C24.492 4.60651 24.497 4.60764 24.5015 4.60983C24.5061 4.61202 24.5101 4.61521 24.5132 4.61914C24.5163 4.62307 24.5184 4.62765 24.5194 4.6325C24.5203 4.63735 24.5202 4.64236 24.5188 4.64712L19.7617 21.4584C19.7594 21.4663 19.7546 21.4733 19.7479 21.4783C19.7412 21.4833 19.733 21.486 19.7246 21.486L14.6895 21.5093C14.6704 21.5093 14.6518 21.5031 14.6365 21.4916C14.6213 21.48 14.6102 21.4638 14.6049 21.4454L12.2898 13.1935Z" fill="white"/>
<path d="M55.067 13.5658C53.435 14.4647 51.809 15.3687 50.1891 16.2779C50.1407 16.3049 50.1281 16.3343 50.1511 16.366C50.1281 16.3683 50.1076 16.3766 50.0898 16.391C50.0927 16.3547 50.0803 16.3444 50.0527 16.3599C48.4212 17.2916 46.776 18.1988 45.1169 19.0815C45.0985 17.2602 45.0933 15.4493 45.1013 13.6487C45.1019 13.4938 45.1103 13.3859 45.1264 13.3248L50.0933 10.5506L59.5013 5.30097C59.5052 5.29884 59.5095 5.29777 59.5139 5.29786C59.5183 5.29794 59.5226 5.29919 59.5264 5.30146C59.5302 5.30374 59.5332 5.30697 59.5354 5.31082C59.5375 5.31468 59.5386 5.31902 59.5385 5.32342V10.9211C59.5385 10.962 59.5276 11.002 59.5069 11.0373C59.4863 11.0725 59.4567 11.1016 59.4211 11.1215L55.067 13.5658Z" fill="#C605F2"/>
<path d="M55.0697 13.5664L59.39 16.0081C59.4015 16.0147 59.4111 16.0241 59.4178 16.0355C59.4245 16.0469 59.428 16.0598 59.428 16.0729L59.4332 21.535C59.4332 21.5404 59.4317 21.5458 59.429 21.5505C59.4262 21.5552 59.4223 21.5591 59.4176 21.5618C59.4129 21.5645 59.4075 21.5659 59.4021 21.5659C59.3966 21.5659 59.3913 21.5645 59.3866 21.5618L50.1537 16.3666C50.1307 16.3349 50.1434 16.3055 50.1917 16.2785C51.8116 15.3693 53.4376 14.4652 55.0697 13.5664Z" fill="white"/>
<path d="M50.0882 16.3887L50.064 21.4414C50.0638 21.4529 50.059 21.4639 50.0508 21.472C50.0426 21.48 50.0315 21.4846 50.02 21.4846L45.1705 21.4794C45.1588 21.4794 45.1476 21.4748 45.1393 21.4667C45.1311 21.4586 45.1265 21.4477 45.1265 21.4362L45.1152 19.0791C46.7743 18.1964 48.4196 17.2892 50.051 16.3576C50.0787 16.342 50.091 16.3524 50.0882 16.3887Z" fill="white"/>
</svg>