<svg xmlns="http://www.w3.org/2000/svg" xmlns:xlink="http://www.w3.org/1999/xlink" width="340" zoomAndPan="magnify" viewBox="0 0 255 254.999984" height="340" preserveAspectRatio="xMidYMid meet" version="1.0"><defs><clipPath id="8854b37e20"><path d="M 0 0.101562 L 255 0.101562 L 255 255 L 0 255 Z M 0 0.101562 " clip-rule="nonzero"/></clipPath></defs><path fill="#00749a" d="M 18.085938 127.234375 C 18.085938 170.441406 43.195312 207.777344 79.605469 225.472656 L 27.535156 82.8125 C 21.296875 96.789062 18.074219 111.925781 18.085938 127.234375 Z M 200.929688 121.726562 C 200.929688 108.234375 196.082031 98.894531 191.925781 91.621094 C 186.394531 82.628906 181.210938 75.015625 181.210938 66.023438 C 181.210938 55.992188 188.816406 46.652344 199.535156 46.652344 C 200.019531 46.652344 200.480469 46.710938 200.953125 46.738281 C 181.53125 28.945312 155.65625 18.082031 127.242188 18.082031 C 89.105469 18.082031 55.558594 37.648438 36.039062 67.285156 C 38.601562 67.359375 41.015625 67.414062 43.0625 67.414062 C 54.480469 67.414062 72.15625 66.027344 72.15625 66.027344 C 78.039062 65.679688 78.734375 74.324219 72.855469 75.019531 C 72.855469 75.019531 66.941406 75.714844 60.363281 76.058594 L 100.109375 194.292969 L 124 122.648438 L 106.992188 76.058594 C 101.113281 75.710938 95.546875 75.015625 95.546875 75.015625 C 89.664062 74.671875 90.355469 65.679688 96.234375 66.023438 C 96.234375 66.023438 114.261719 67.410156 124.988281 67.410156 C 136.402344 67.410156 154.078125 66.023438 154.078125 66.023438 C 159.964844 65.679688 160.65625 74.320312 154.777344 75.015625 C 154.777344 75.015625 148.851562 75.710938 142.285156 76.058594 L 181.730469 193.394531 L 192.617188 157.011719 C 197.335938 141.914062 200.929688 131.070312 200.929688 121.726562 Z M 200.929688 121.726562 " fill-opacity="1" fill-rule="nonzero"/><path fill="#00749a" d="M 129.15625 136.78125 L 96.40625 231.945312 C 106.417969 234.894531 116.800781 236.394531 127.242188 236.394531 C 139.953125 236.394531 152.140625 234.195312 163.488281 230.207031 C 163.183594 229.730469 162.921875 229.226562 162.710938 228.703125 Z M 223.019531 74.863281 C 223.488281 78.339844 223.753906 82.074219 223.753906 86.089844 C 223.753906 97.164062 221.6875 109.617188 215.453125 125.1875 L 182.113281 221.585938 C 214.5625 202.660156 236.390625 167.503906 236.390625 127.234375 C 236.421875 108.929688 231.820312 90.914062 223.019531 74.863281 Z M 223.019531 74.863281 " fill-opacity="1" fill-rule="nonzero"/><g clip-path="url(#8854b37e20)"><path fill="#00749a" d="M 127.242188 -0.00390625 C 57.082031 -0.00390625 0 57.074219 0 127.234375 C 0 197.402344 57.078125 254.480469 127.242188 254.480469 C 197.398438 254.480469 254.488281 197.402344 254.488281 127.234375 C 254.484375 57.074219 197.398438 -0.00390625 127.242188 -0.00390625 Z M 127.242188 248.644531 C 60.300781 248.644531 5.835938 194.179688 5.835938 127.234375 C 5.835938 60.292969 60.296875 5.832031 127.242188 5.832031 C 194.179688 5.832031 248.640625 60.292969 248.640625 127.234375 C 248.640625 194.179688 194.179688 248.644531 127.242188 248.644531 Z M 127.242188 248.644531 " fill-opacity="1" fill-rule="nonzero"/></g></svg>